<svg width="236" height="317" viewBox="0 0 236 317" fill="none" xmlns="http://www.w3.org/2000/svg">
<g filter="url(#filter0_d_47_474)">
<path d="M230.249 116.528C232.239 105.236 231.954 94.6022 229.386 84.6322C226.818 74.6665 222.524 66.2483 216.512 58.7995C214.739 56.6056 212.822 54.3693 210.773 52.9237H210.777L181.56 23.6387C181.76 23.881 181.964 24.0128 182.164 24.2594C188.175 31.7082 192.47 40.3688 195.037 50.3345C197.605 60.3088 197.89 70.9123 195.901 82.2046C194.417 90.6185 191.802 98.5903 188.069 106.158C184.328 113.726 179.847 120.75 174.621 127.238C182.636 134.929 188.426 144.299 192.01 155.345C195.586 166.399 196.232 178.41 193.945 191.386C191.955 202.682 187.916 213.316 181.832 223.281C175.748 233.256 168.393 241.903 159.775 249.229C151.148 256.559 141.471 262.673 130.74 267.001C120.005 271.325 108.989 273.778 97.7012 273.778H44.4371L44.3563 273.969L4.02553 273.808L38.3402 308.42H126.225H125.779H132.05C143.342 308.42 154.354 305.818 165.089 301.494C175.82 297.17 185.497 291.129 194.119 283.795C202.737 276.469 210.092 267.706 216.176 257.736C222.256 247.771 226.295 237.082 228.289 225.786C230.577 212.81 229.93 200.773 226.355 189.715C222.771 178.665 216.98 169.282 208.966 161.591C214.191 155.103 218.676 148.066 222.414 140.498C226.146 132.93 228.761 124.937 230.245 116.524L230.249 116.528Z" fill="url(#paint0_linear_47_474)"/>
<path d="M96.9316 54.791L131.28 89.1355L102.429 252.763L68.0802 218.418L96.9316 54.791Z" fill="url(#paint1_linear_47_474)"/>
<path d="M153.265 89.0116L141.625 54.3652H97.0422L131.28 89.0116H153.265Z" fill="url(#paint2_linear_47_474)"/>
<path d="M77.8802 164.076L112.012 198.718H153.708L141.114 164.076H77.8802Z" fill="url(#paint3_linear_47_474)"/>
<path d="M128.581 0.00424927C139.873 0.00424927 150.123 2.16832 159.332 6.4922C168.537 10.8161 176.148 16.7088 182.168 24.1534C188.18 31.6022 192.474 40.3137 195.042 50.2838C197.61 60.258 197.895 70.8913 195.905 82.1793C194.421 90.5933 191.806 98.5778 188.073 106.146C184.332 113.713 179.851 120.741 174.626 127.229C182.64 134.921 188.43 144.291 192.015 155.341C195.59 166.395 196.236 178.406 193.949 191.382C191.955 202.678 187.92 213.312 181.836 223.277C175.752 233.252 168.397 241.899 159.779 249.229C151.152 256.559 141.476 262.384 130.745 266.708C120.009 271.031 108.993 273.196 97.7054 273.196H4L52.1707 0H128.576L128.581 0.00424927ZM87.34 109.211H109.325C117.012 109.211 123.963 106.571 130.183 101.282C136.399 96.0013 140.166 89.6324 141.48 82.1793C142.836 74.4924 141.331 68.0045 136.982 62.7155C132.624 57.435 126.604 54.7862 118.917 54.7862H96.9316L87.3358 109.207L87.34 109.211ZM68.0845 218.418H107.369C115.056 218.418 121.999 215.837 128.198 210.667C134.393 205.501 138.172 199.077 139.528 191.386C140.885 183.699 139.38 177.211 135.03 171.922C130.672 166.642 124.652 163.993 116.965 163.993H77.6804L68.0845 218.414V218.418Z" fill="white"/>
</g>
<defs>
<filter id="filter0_d_47_474" x="0" y="0" width="235.554" height="316.42" filterUnits="userSpaceOnUse" color-interpolation-filters="sRGB">
<feFlood flood-opacity="0" result="BackgroundImageFix"/>
<feColorMatrix in="SourceAlpha" type="matrix" values="0 0 0 0 0 0 0 0 0 0 0 0 0 0 0 0 0 0 127 0" result="hardAlpha"/>
<feOffset dy="4"/>
<feGaussianBlur stdDeviation="2"/>
<feComposite in2="hardAlpha" operator="out"/>
<feColorMatrix type="matrix" values="0 0 0 0 0 0 0 0 0 0 0 0 0 0 0 0 0 0 0.25 0"/>
<feBlend mode="normal" in2="BackgroundImageFix" result="effect1_dropShadow_47_474"/>
<feBlend mode="normal" in="SourceGraphic" in2="effect1_dropShadow_47_474" result="shape"/>
</filter>
<linearGradient id="paint0_linear_47_474" x1="4.02978" y1="166.034" x2="231.555" y2="166.034" gradientUnits="userSpaceOnUse">
<stop stop-color="#A9CACE"/>
<stop offset="0.07" stop-color="#B3CBD0"/>
<stop offset="0.29" stop-color="#CDCFD5"/>
<stop offset="0.51" stop-color="#DFD2D9"/>
<stop offset="0.74" stop-color="#EAD4DB"/>
<stop offset="1" stop-color="#EED5DC"/>
</linearGradient>
<linearGradient id="paint1_linear_47_474" x1="68.0802" y1="153.777" x2="131.28" y2="153.777" gradientUnits="userSpaceOnUse">
<stop stop-color="#91C5C8"/>
<stop offset="1" stop-color="#787FAF"/>
</linearGradient>
<linearGradient id="paint2_linear_47_474" x1="97.0422" y1="71.6863" x2="153.265" y2="71.6863" gradientUnits="userSpaceOnUse">
<stop stop-color="#91C5C8"/>
<stop offset="1" stop-color="#9BBCE3"/>
</linearGradient>
<linearGradient id="paint3_linear_47_474" x1="77.8802" y1="181.397" x2="153.708" y2="181.397" gradientUnits="userSpaceOnUse">
<stop stop-color="#91C5C8"/>
<stop offset="1" stop-color="#9BBCE3"/>
</linearGradient>
</defs>
</svg>
