<svg width="24" height="24" viewBox="0 0 24 24" fill="none" xmlns="http://www.w3.org/2000/svg">
<g id="Box#3">
<path id="Combined Shape" fill-rule="evenodd" clip-rule="evenodd" d="M3.93445 9.67396L10.7019 13.6463C10.7748 13.6891 10.8512 13.72 10.929 13.7396V21.4437L4.41711 17.5257C4.11794 17.3457 3.93445 17.0185 3.93445 16.6651V9.67396ZM19.6722 9.56836V16.6651C19.6722 17.0185 19.4887 17.3457 19.1895 17.5257L12.6776 21.4437V13.6721C12.6935 13.664 12.7092 13.6554 12.7248 13.6463L19.6722 9.56836Z" fill="white"/>
<path id="Path" fill-rule="evenodd" clip-rule="evenodd" d="M4.14697 7.7461C4.22964 7.63997 4.33397 7.55028 4.45561 7.48441L11.3409 3.75606C11.6299 3.59954 11.9766 3.59954 12.2656 3.75606L19.1509 7.48441C19.2447 7.53519 19.3281 7.60012 19.3993 7.67582L11.8504 12.1068C11.8008 12.136 11.755 12.1693 11.7133 12.2062C11.6716 12.1693 11.6258 12.136 11.5762 12.1068L4.14697 7.7461Z" fill="#FAB8C4"/>
</g>
</svg>
