<svg width="221" height="143" viewBox="0 0 221 143" fill="none" xmlns="http://www.w3.org/2000/svg">
<g id="&#60;Group&#62;">
<g id="&#60;Group&#62;_2">
<g id="&#60;Group&#62;_3">
<g id="&#60;Group&#62;_4">
<path id="&#60;Path&#62;" d="M108.112 68.3402C108.112 96.1966 85.5398 118.768 57.7133 118.768C29.8569 118.768 7.28516 96.1966 7.28516 68.3402C7.28516 40.4838 29.8569 17.9121 57.7133 17.9121C85.5398 17.9121 108.112 40.4838 108.112 68.3402Z" fill="url(#paint0_radial_333_656)"/>
<g id="&#60;Path&#62;_2" style="mix-blend-mode:multiply">
<path d="M108.112 68.3402C108.112 96.1966 85.5398 118.768 57.7133 118.768C29.8569 118.768 7.28516 96.1966 7.28516 68.3402C7.28516 40.4838 29.8569 17.9121 57.7133 17.9121C85.5398 17.9121 108.112 40.4838 108.112 68.3402Z" fill="white"/>
</g>
</g>
</g>
<g id="&#60;Group&#62;_5">
<g id="&#60;Group&#62;_6">
<path id="&#60;Path&#62;_3" d="M49.9504 93.3001C49.9504 107.094 38.7541 118.26 24.9603 118.26C11.1963 118.26 0 107.094 0 93.3001C0 79.5063 11.1963 68.3398 24.9603 68.3398C38.7541 68.3398 49.9504 79.5063 49.9504 93.3001Z" fill="url(#paint1_radial_333_656)"/>
<g id="&#60;Path&#62;_4" style="mix-blend-mode:multiply">
<path d="M49.9504 93.3001C49.9504 107.094 38.7541 118.26 24.9603 118.26C11.1963 118.26 0 107.094 0 93.3001C0 79.5063 11.1963 68.3398 24.9603 68.3398C38.7541 68.3398 49.9504 79.5063 49.9504 93.3001Z" fill="white"/>
</g>
</g>
</g>
<g id="&#60;Group&#62;_7">
<g id="&#60;Group&#62;_8">
<path id="&#60;Path&#62;_5" d="M181.529 59.1463C181.529 91.7798 155.046 118.263 122.383 118.263C89.7197 118.263 63.2367 91.7798 63.2367 59.1463C63.2367 26.483 89.7197 0 122.383 0C155.046 0 181.529 26.483 181.529 59.1463Z" fill="url(#paint2_radial_333_656)"/>
<g id="&#60;Path&#62;_6" style="mix-blend-mode:multiply">
<path d="M181.529 59.1463C181.529 91.7798 155.046 118.263 122.383 118.263C89.7197 118.263 63.2367 91.7798 63.2367 59.1463C63.2367 26.483 89.7197 0 122.383 0C155.046 0 181.529 26.483 181.529 59.1463Z" fill="white"/>
</g>
</g>
</g>
<g id="&#60;Group&#62;_9">
<g id="&#60;Group&#62;_10">
<path id="&#60;Path&#62;_7" d="M221 97.0943C221 121.965 200.847 142.118 175.976 142.118C151.105 142.118 130.952 121.965 130.952 97.0943C130.952 72.2236 151.105 52.0703 175.976 52.0703C200.847 52.0703 221 72.2236 221 97.0943Z" fill="url(#paint3_radial_333_656)"/>
<g id="&#60;Path&#62;_8" style="mix-blend-mode:multiply">
<path d="M221 97.0943C221 121.965 200.847 142.118 175.976 142.118C151.105 142.118 130.952 121.965 130.952 97.0943C130.952 72.2236 151.105 52.0703 175.976 52.0703C200.847 52.0703 221 72.2236 221 97.0943Z" fill="white"/>
</g>
</g>
</g>
<g id="&#60;Group&#62;_11">
<g id="&#60;Group&#62;_12">
<path id="&#60;Path&#62;_9" d="M139.999 97.0943C139.999 121.965 119.845 142.118 94.9745 142.118C70.1038 142.118 49.9504 121.965 49.9504 97.0943C49.9504 72.2236 70.1038 52.0703 94.9745 52.0703C119.845 52.0703 139.999 72.2236 139.999 97.0943Z" fill="url(#paint4_radial_333_656)"/>
<g id="&#60;Path&#62;_10" style="mix-blend-mode:multiply">
<path d="M139.999 97.0943C139.999 121.965 119.845 142.118 94.9745 142.118C70.1038 142.118 49.9504 121.965 49.9504 97.0943C49.9504 72.2236 70.1038 52.0703 94.9745 52.0703C119.845 52.0703 139.999 72.2236 139.999 97.0943Z" fill="white"/>
</g>
</g>
</g>
<g id="&#60;Group&#62;_13">
<g id="&#60;Group&#62;_14">
<path id="&#60;Path&#62;_11" d="M164.959 114.384C164.959 128.178 153.792 139.344 139.998 139.344C126.205 139.344 115.038 128.178 115.038 114.384C115.038 100.59 126.205 89.4238 139.998 89.4238C153.792 89.4238 164.959 100.59 164.959 114.384Z" fill="url(#paint5_radial_333_656)"/>
<g id="&#60;Path&#62;_12" style="mix-blend-mode:multiply">
<path d="M164.959 114.384C164.959 128.178 153.792 139.344 139.998 139.344C126.205 139.344 115.038 128.178 115.038 114.384C115.038 100.59 126.205 89.4238 139.998 89.4238C153.792 89.4238 164.959 100.59 164.959 114.384Z" fill="white"/>
</g>
</g>
</g>
</g>
</g>
<defs>
<radialGradient id="paint0_radial_333_656" cx="0" cy="0" r="1" gradientUnits="userSpaceOnUse" gradientTransform="translate(32.7231 28.3023) scale(119.965 119.965)">
<stop stop-color="white"/>
<stop offset="0.7" stop-color="#B6ACC6"/>
<stop offset="1" stop-color="white"/>
</radialGradient>
<radialGradient id="paint1_radial_333_656" cx="0" cy="0" r="1" gradientUnits="userSpaceOnUse" gradientTransform="translate(12.5996 73.4752) scale(59.415 59.415)">
<stop stop-color="white"/>
<stop offset="0.7" stop-color="#B6ACC6"/>
<stop offset="1" stop-color="white"/>
</radialGradient>
<radialGradient id="paint2_radial_333_656" cx="0" cy="0" r="1" gradientUnits="userSpaceOnUse" gradientTransform="translate(93.0935 12.1816) scale(140.715 140.715)">
<stop stop-color="white"/>
<stop offset="0.7" stop-color="#B6ACC6"/>
<stop offset="1" stop-color="white"/>
</radialGradient>
<radialGradient id="paint3_radial_333_656" cx="0" cy="0" r="1" gradientUnits="userSpaceOnUse" gradientTransform="translate(153.673 61.3259) scale(107.156 107.156)">
<stop stop-color="white"/>
<stop offset="0.7" stop-color="#B6ACC6"/>
<stop offset="1" stop-color="white"/>
</radialGradient>
<radialGradient id="paint4_radial_333_656" cx="0" cy="0" r="1" gradientUnits="userSpaceOnUse" gradientTransform="translate(72.6416 61.3259) scale(107.156)">
<stop stop-color="white"/>
<stop offset="0.7" stop-color="#B6ACC6"/>
<stop offset="1" stop-color="white"/>
</radialGradient>
<radialGradient id="paint5_radial_333_656" cx="0" cy="0" r="1" gradientUnits="userSpaceOnUse" gradientTransform="translate(127.608 94.5592) scale(59.415 59.415)">
<stop stop-color="white"/>
<stop offset="0.7" stop-color="#B6ACC6"/>
<stop offset="1" stop-color="white"/>
</radialGradient>
</defs>
</svg>
