<svg width="663" height="498" viewBox="0 0 663 498" fill="none" xmlns="http://www.w3.org/2000/svg">
<g filter="url(#filter0_d_7_517)">
<g opacity="0.9">
<path d="M558.744 200.689C558.744 205.995 558.744 211.332 558.744 216.698C558.744 289.225 558.744 361.752 558.744 434.279C558.744 443.831 558.744 453.354 558.744 462.848C558.744 470.277 555.649 477.088 550.784 481.952C546.008 486.729 539.463 489.736 532.298 489.913C532.062 489.913 531.856 489.913 531.679 489.913C522.54 489.913 513.371 489.913 504.172 489.913C500.398 489.913 496.595 489.913 492.762 489.913C487.514 489.913 482.266 489.913 477.019 489.913C458.68 489.913 440.342 489.913 422.004 489.913C404.845 489.913 387.657 489.913 370.439 489.913C364.955 489.913 359.442 489.913 353.899 489.913C305.784 489.913 257.668 489.913 209.553 489.913C205.602 489.913 201.622 489.913 197.612 489.913C190.182 489.913 183.372 486.905 178.507 481.952C173.554 477.088 170.547 470.277 170.547 462.848C170.547 453.354 170.547 443.831 170.547 434.279C170.547 361.752 170.547 289.225 170.547 216.698C170.547 211.332 170.547 205.995 170.547 200.689C170.547 198.212 170.901 195.824 171.52 193.524C172.758 188.925 175.235 184.856 178.507 181.584C183.372 176.631 190.182 173.623 197.612 173.623C201.622 173.623 205.602 173.623 209.553 173.623C257.432 173.623 305.282 173.623 353.103 173.623C353.103 169.496 353.103 165.368 353.103 161.241C353.103 160.592 353.133 159.944 353.192 159.295C353.722 152.573 356.641 146.558 361.064 142.136C366.017 137.183 372.739 134.176 380.168 134.176C380.876 134.176 381.554 134.176 382.203 134.176C413.808 134.176 445.443 134.176 477.107 134.176C477.166 134.176 477.195 134.176 477.195 134.176C484.625 134.176 491.347 137.271 496.212 142.136C500.723 146.558 503.641 152.573 504.172 159.295C504.172 159.944 504.172 160.592 504.172 161.241C504.172 165.368 504.172 169.496 504.172 173.623C513.371 173.623 522.54 173.623 531.679 173.623C531.856 173.623 532.062 173.623 532.298 173.623C539.463 173.8 546.008 176.808 550.784 181.584C554.057 184.856 556.533 188.925 557.771 193.524C558.39 195.824 558.744 198.212 558.744 200.689Z" fill="url(#paint0_linear_7_517)"/>
<path style="mix-blend-mode:soft-light" fill-rule="evenodd" clip-rule="evenodd" d="M370.439 489.913C364.955 489.913 359.442 489.913 353.899 489.913C305.784 489.913 257.668 489.913 209.553 489.913C205.602 489.913 201.622 489.913 197.612 489.913C190.182 489.913 183.372 486.905 178.507 481.952C173.554 477.088 170.547 470.277 170.547 462.848C170.547 456.656 170.547 450.435 170.547 444.185C170.547 440.883 170.547 437.581 170.547 434.279C170.547 375.962 170.547 317.646 170.547 259.329C170.547 251.31 170.547 243.261 170.547 235.183C170.547 229.051 170.547 222.889 170.547 216.698C170.547 211.391 170.547 206.054 170.547 200.689C170.547 198.212 170.901 195.824 171.52 193.524C171.697 192.935 171.874 192.345 172.051 191.755C173.466 187.864 175.677 184.414 178.507 181.584C181.072 179.019 184.08 176.985 187.441 175.569C190.625 174.331 194.074 173.623 197.612 173.623C201.622 173.623 205.602 173.623 209.553 173.623C257.432 173.623 305.282 173.623 353.103 173.623C353.103 169.496 353.103 165.368 353.103 161.241C353.103 160.592 353.133 159.944 353.192 159.295C353.722 152.573 356.641 146.558 361.064 142.136C365.84 137.36 372.473 134.353 379.726 134.176C380.551 134.176 381.377 134.176 382.203 134.176C397.416 134.176 412.629 134.176 427.842 134.176C444.234 134.176 460.656 134.176 477.107 134.176C477.166 134.176 477.195 134.176 477.195 134.176C484.625 134.176 491.347 137.271 496.212 142.136C497.155 143.021 498.01 143.964 498.777 144.966C507.887 144.613 516.82 145.851 523.807 152.927C534.333 156.642 538.047 165.133 538.932 174.596C543.443 175.835 547.511 178.311 550.784 181.584C554.057 184.856 556.533 188.925 557.771 193.524C558.39 195.824 558.744 198.212 558.744 200.689C558.744 202.104 558.744 203.519 558.744 204.934C558.744 208.885 558.744 212.806 558.744 216.698C558.744 221.828 558.744 226.957 558.744 232.087C558.744 299.485 558.744 366.882 558.744 434.279C558.744 435.989 558.744 437.67 558.744 439.321C558.744 447.163 558.744 455.005 558.744 462.848C558.744 470.277 555.649 477.088 550.784 481.952C546.008 486.729 539.463 489.736 532.298 489.913C532.062 489.913 531.856 489.913 531.679 489.913C530.087 489.913 528.525 489.913 526.991 489.913C519.385 489.913 511.778 489.913 504.172 489.913C500.398 489.913 496.595 489.913 492.762 489.913C487.514 489.913 482.266 489.913 477.019 489.913C467.171 489.913 457.295 489.913 447.389 489.913C438.956 489.913 430.495 489.913 422.004 489.913C414.28 489.913 406.585 489.913 398.919 489.913C389.426 489.913 379.932 489.913 370.439 489.913ZM401.13 442.947C401.13 447.016 401.13 451.173 401.13 455.418C401.219 450.553 401.219 446.22 401.13 442.947ZM401.13 455.418C401.042 467.359 400.6 482.218 398.919 489.913C401.307 478.768 401.219 467.005 401.13 455.418ZM500.811 148.062C502.668 151.423 503.818 155.226 504.172 159.295C504.172 159.944 504.172 160.592 504.172 161.241C504.172 165.368 504.172 169.496 504.172 173.623C512.899 173.623 521.596 173.623 530.264 173.623C529.38 166.459 529.026 158.41 523.807 152.927C516.466 150.362 508.417 149.212 500.811 148.062Z" fill="url(#paint1_linear_7_517)"/>
<path opacity="0.3" fill-rule="evenodd" clip-rule="evenodd" d="M370.439 489.913C364.955 489.913 359.442 489.913 353.899 489.913C305.784 489.913 257.668 489.913 209.553 489.913C205.602 489.913 201.622 489.913 197.612 489.913C190.182 489.913 183.372 486.905 178.507 481.952C173.554 477.088 170.547 470.277 170.547 462.848C170.547 456.656 170.547 450.435 170.547 444.185C170.547 440.883 170.547 437.581 170.547 434.279C170.547 375.962 170.547 317.646 170.547 259.329C170.547 251.31 170.547 243.261 170.547 235.183C170.547 229.051 170.547 222.889 170.547 216.698C170.547 211.391 170.547 206.054 170.547 200.689C170.547 198.212 170.901 195.824 171.52 193.524C171.697 192.935 171.874 192.345 172.051 191.755C173.466 187.864 175.677 184.414 178.507 181.584C181.072 179.019 184.08 176.985 187.441 175.569C190.625 174.331 194.074 173.623 197.612 173.623C201.622 173.623 205.602 173.623 209.553 173.623C257.432 173.623 305.282 173.623 353.103 173.623C353.103 169.496 353.103 165.368 353.103 161.241C353.103 160.592 353.133 159.944 353.192 159.295C353.722 152.573 356.641 146.558 361.064 142.136C365.84 137.36 372.473 134.353 379.726 134.176C380.551 134.176 381.377 134.176 382.203 134.176C397.416 134.176 412.629 134.176 427.842 134.176C444.234 134.176 460.656 134.176 477.107 134.176C477.166 134.176 477.195 134.176 477.195 134.176C484.625 134.176 491.347 137.271 496.212 142.136C497.155 143.021 498.01 143.964 498.777 144.966C507.887 144.613 516.82 145.851 523.807 152.927C534.333 156.642 538.047 165.133 538.932 174.596C543.443 175.835 547.511 178.311 550.784 181.584C554.057 184.856 556.533 188.925 557.771 193.524C558.39 195.824 558.744 198.212 558.744 200.689C558.744 202.104 558.744 203.519 558.744 204.934C558.744 208.885 558.744 212.806 558.744 216.698C558.744 221.828 558.744 226.957 558.744 232.087C558.744 299.485 558.744 366.882 558.744 434.279C558.744 435.989 558.744 437.67 558.744 439.321C558.744 447.163 558.744 455.005 558.744 462.848C558.744 470.277 555.649 477.088 550.784 481.952C546.008 486.729 539.463 489.736 532.298 489.913C532.062 489.913 531.856 489.913 531.679 489.913C530.087 489.913 528.525 489.913 526.991 489.913C519.385 489.913 511.778 489.913 504.172 489.913C500.398 489.913 496.595 489.913 492.762 489.913C487.514 489.913 482.266 489.913 477.019 489.913C467.171 489.913 457.295 489.913 447.389 489.913C438.956 489.913 430.495 489.913 422.004 489.913C414.28 489.913 406.585 489.913 398.919 489.913C389.426 489.913 379.932 489.913 370.439 489.913ZM401.13 442.947C401.13 447.016 401.13 451.173 401.13 455.418C401.219 450.553 401.219 446.22 401.13 442.947ZM401.13 455.418C401.042 467.359 400.6 482.218 398.919 489.913C401.307 478.768 401.219 467.005 401.13 455.418ZM500.811 148.062C502.668 151.423 503.818 155.226 504.172 159.295C504.172 159.944 504.172 160.592 504.172 161.241C504.172 165.368 504.172 169.496 504.172 173.623C512.899 173.623 521.596 173.623 530.264 173.623C529.38 166.459 529.026 158.41 523.807 152.927C516.466 150.362 508.417 149.212 500.811 148.062Z" fill="url(#paint2_linear_7_517)"/>
</g>
<path d="M324.269 202.461C324.269 284.982 257.403 351.849 174.97 351.849C92.4477 351.849 25.5813 284.982 25.5813 202.461C25.5813 119.939 92.4477 53.0723 174.97 53.0723C257.403 53.0723 324.269 119.939 324.269 202.461Z" fill="url(#paint3_radial_7_517)"/>
<g style="mix-blend-mode:multiply">
<path d="M324.269 202.461C324.269 284.982 257.403 351.849 174.97 351.849C92.4477 351.849 25.5813 284.982 25.5813 202.461C25.5813 119.939 92.4477 53.0723 174.97 53.0723C257.403 53.0723 324.269 119.939 324.269 202.461Z" fill="white"/>
</g>
<path d="M151.973 276.399C151.973 317.262 118.805 350.342 77.9423 350.342C37.1679 350.342 3.99998 317.262 3.99998 276.399C3.99998 235.536 37.1679 202.457 77.9423 202.457C118.805 202.457 151.973 235.536 151.973 276.399Z" fill="url(#paint4_radial_7_517)"/>
<g style="mix-blend-mode:multiply">
<path d="M151.973 276.399C151.973 317.262 118.805 350.342 77.9423 350.342C37.1679 350.342 3.99998 317.262 3.99998 276.399C3.99998 235.536 37.1679 202.457 77.9423 202.457C118.805 202.457 151.973 235.536 151.973 276.399Z" fill="white"/>
</g>
<path d="M541.762 175.215C541.762 271.888 463.309 350.342 366.547 350.342C269.785 350.342 191.332 271.888 191.332 175.215C191.332 78.4532 269.785 0 366.547 0C463.309 0 541.762 78.4532 541.762 175.215Z" fill="url(#paint5_radial_7_517)"/>
<g style="mix-blend-mode:multiply">
<path d="M541.762 175.215C541.762 271.888 463.309 350.342 366.547 350.342C269.785 350.342 191.332 271.888 191.332 175.215C191.332 78.4532 269.785 0 366.547 0C463.309 0 541.762 78.4532 541.762 175.215Z" fill="white"/>
</g>
<path d="M658.69 287.639C658.69 361.316 598.988 421.018 525.311 421.018C451.634 421.018 391.932 361.316 391.932 287.639C391.932 213.962 451.634 154.26 525.311 154.26C598.988 154.26 658.69 213.962 658.69 287.639Z" fill="url(#paint6_radial_7_517)"/>
<g style="mix-blend-mode:multiply">
<path d="M658.69 287.639C658.69 361.316 598.988 421.018 525.311 421.018C451.634 421.018 391.932 361.316 391.932 287.639C391.932 213.962 451.634 154.26 525.311 154.26C598.988 154.26 658.69 213.962 658.69 287.639Z" fill="white"/>
</g>
<path d="M418.731 287.639C418.731 361.316 359.029 421.018 285.352 421.018C211.675 421.018 151.973 361.316 151.973 287.639C151.973 213.962 211.675 154.26 285.352 154.26C359.029 154.26 418.731 213.962 418.731 287.639Z" fill="url(#paint7_radial_7_517)"/>
<g style="mix-blend-mode:multiply">
<path d="M418.731 287.639C418.731 361.316 359.029 421.018 285.352 421.018C211.675 421.018 151.973 361.316 151.973 287.639C151.973 213.962 211.675 154.26 285.352 154.26C359.029 154.26 418.731 213.962 418.731 287.639Z" fill="white"/>
</g>
<path d="M492.674 338.849C492.674 379.711 459.594 412.791 418.731 412.791C377.869 412.791 344.789 379.711 344.789 338.849C344.789 297.986 377.869 264.906 418.731 264.906C459.594 264.906 492.674 297.986 492.674 338.849Z" fill="url(#paint8_radial_7_517)"/>
<g style="mix-blend-mode:multiply">
<path d="M492.674 338.849C492.674 379.711 459.594 412.791 418.731 412.791C377.869 412.791 344.789 379.711 344.789 338.849C344.789 297.986 377.869 264.906 418.731 264.906C459.594 264.906 492.674 297.986 492.674 338.849Z" fill="white"/>
</g>
<g opacity="0.8">
<path d="M231.93 274.195C218.397 246.864 217.159 215.908 226.535 188.4C231.93 172.214 241.04 157.267 253.334 144.972C257.845 140.462 262.71 136.305 268.017 132.59C281.372 123.214 296.231 116.935 311.71 114.016C329.753 110.566 348.681 111.716 366.901 117.554C370.793 118.792 372.916 122.861 371.677 126.752C370.439 130.555 366.37 132.678 362.479 131.44C335.944 123.037 307.906 126.045 284.114 139.666C281.52 141.199 278.955 142.85 276.419 144.619C237.414 172.037 223.881 225.018 245.02 267.738C245.639 268.888 245.816 270.126 245.816 271.364C245.728 272.779 245.197 274.106 244.401 275.256C243.782 276.229 242.809 277.025 241.748 277.556C238.121 279.325 233.699 277.821 231.93 274.195Z" fill="url(#paint9_linear_7_517)"/>
<path d="M340.455 144.529C341.811 142.053 343.168 139.576 344.524 137.099C350.126 126.84 355.727 116.55 361.329 106.231C362.921 103.342 364.484 100.453 366.017 97.5633C367.874 94.1139 372.385 93.5832 375.038 95.9713C375.451 96.384 375.805 96.8263 376.1 97.298C378.281 100.895 380.463 104.492 382.645 108.089C388.6 117.759 394.526 127.429 400.423 137.099C401.602 139.045 402.781 140.991 403.961 142.937C405.641 145.59 404.845 148.686 402.722 150.455C401.75 151.251 400.6 151.693 399.185 151.693C392.345 151.87 385.505 152.047 378.665 152.224C367.697 152.519 356.73 152.814 345.762 153.109C343.993 153.109 342.578 152.489 341.517 151.428C339.748 149.659 339.217 146.917 340.455 144.529Z" fill="url(#paint10_linear_7_517)"/>
<path d="M269.166 316.826C267.456 314.114 265.776 311.401 264.125 308.689C262.09 305.328 262.71 301.436 265.009 298.96C266.424 297.545 268.37 296.483 270.581 296.483C277.186 296.247 283.76 296.041 290.305 295.864C300.624 295.51 310.943 295.157 321.262 294.803C323.562 294.803 325.508 295.599 326.923 296.925C329.488 299.225 330.461 303.117 328.603 306.566C327.129 309.338 325.655 312.08 324.181 314.792C319.228 324.049 314.275 333.277 309.322 342.476C307.789 345.424 306.226 348.373 304.634 351.321C302.688 354.859 298.708 356.185 295.258 355.124C293.489 354.593 291.897 353.532 290.836 351.763C289.126 349.051 287.446 346.338 285.794 343.626C280.252 334.663 274.709 325.73 269.166 316.826Z" fill="url(#paint11_linear_7_517)"/>
<path d="M386.094 308.686C388.984 306.917 391.784 305.03 394.497 303.025C432.176 274.457 444.028 223.245 422.712 181.144C422.181 179.994 421.916 178.845 421.916 177.695C422.004 176.191 422.535 174.688 423.419 173.449C424.038 172.565 424.923 171.857 425.984 171.327C429.611 169.469 434.033 170.884 435.802 174.511C449.158 200.957 451.192 230.498 443.232 257.209C438.367 273.484 429.787 288.785 417.759 301.699C413.425 306.386 408.648 310.72 403.342 314.7C391.49 323.634 378.134 330.09 364.071 333.717C356.022 335.839 347.796 337.078 339.394 337.343C326.834 337.785 314.098 336.193 301.804 332.301C298 331.063 295.789 326.995 297.027 323.103C298.266 319.211 302.334 317.088 306.226 318.327C333.114 326.729 362.302 323.103 386.094 308.686Z" fill="url(#paint12_linear_7_517)"/>
</g>
<g opacity="0.8">
<g style="mix-blend-mode:multiply" opacity="0.5">
<path opacity="0.1" d="M514.255 176.986C533.537 176.986 549.192 246.772 549.192 332.831C549.192 418.891 533.537 488.676 514.255 488.676C494.973 488.676 479.318 418.891 479.318 332.831C479.318 246.772 494.973 176.986 514.255 176.986Z" fill="#F2F1F9"/>
<path opacity="0.1" d="M513.99 179.109C532.829 179.109 548.042 248.364 548.042 333.804C548.042 419.245 532.829 488.5 513.99 488.5C495.15 488.5 479.937 419.245 479.937 333.804C479.937 248.364 495.15 179.109 513.99 179.109Z" fill="#EDECF7"/>
<path opacity="0.1" d="M513.724 181.318C532.033 181.318 546.892 250.042 546.892 334.864C546.892 419.597 532.033 488.321 513.724 488.321C495.327 488.321 480.468 419.597 480.468 334.864C480.468 250.042 495.327 181.318 513.724 181.318Z" fill="#E9E8F5"/>
<path opacity="0.1" d="M513.371 183.441C531.237 183.441 545.654 251.723 545.654 335.837C545.654 419.951 531.237 488.144 513.371 488.144C495.593 488.144 481.087 419.951 481.087 335.837C481.087 251.723 495.593 183.441 513.371 183.441Z" fill="#E4E3F3"/>
<path opacity="0.2" d="M513.105 185.652C530.441 185.652 544.504 253.315 544.504 336.81C544.504 420.304 530.441 487.967 513.105 487.967C495.769 487.967 481.706 420.304 481.706 336.81C481.706 253.315 495.769 185.652 513.105 185.652Z" fill="#E0DEF1"/>
<path opacity="0.2" d="M512.84 187.777C529.645 187.777 543.354 254.998 543.354 337.785C543.354 420.66 529.645 487.792 512.84 487.792C495.946 487.792 482.325 420.66 482.325 337.785C482.325 254.998 495.946 187.777 512.84 187.777Z" fill="#DBDAEF"/>
<path opacity="0.2" d="M512.486 189.988C528.849 189.988 542.205 256.589 542.205 338.846C542.205 421.014 528.849 487.615 512.486 487.615C496.123 487.615 482.856 421.014 482.856 338.846C482.856 256.589 496.123 189.988 512.486 189.988Z" fill="#D7D5ED"/>
<path opacity="0.2" d="M512.221 192.111C528.141 192.111 540.966 258.27 540.966 339.819C540.966 421.368 528.141 487.438 512.221 487.438C496.389 487.438 483.475 421.368 483.475 339.819C483.475 258.27 496.389 192.111 512.221 192.111Z" fill="#D3D0EB"/>
<path opacity="0.3" d="M511.955 194.32C527.345 194.32 539.817 259.86 539.817 340.79C539.817 421.72 527.345 487.259 511.955 487.259C496.566 487.259 484.094 421.72 484.094 340.79C484.094 259.86 496.566 194.32 511.955 194.32Z" fill="#CECBE9"/>
<path opacity="0.3" d="M511.69 196.447C526.549 196.447 538.667 261.545 538.667 341.767C538.667 422.077 526.549 487.087 511.69 487.087C496.742 487.087 484.625 422.077 484.625 341.767C484.625 261.545 496.742 196.447 511.69 196.447Z" fill="#CAC7E7"/>
<path opacity="0.3" d="M511.336 198.656C525.753 198.656 537.428 263.135 537.428 342.826C537.428 422.429 525.753 486.996 511.336 486.996C496.919 486.996 485.244 422.429 485.244 342.826C485.244 263.135 496.919 198.656 511.336 198.656Z" fill="#C5C2E5"/>
<path opacity="0.3" d="M511.071 200.779C524.957 200.779 536.279 264.815 536.279 343.799C536.279 422.783 524.957 486.819 511.071 486.819C497.096 486.819 485.863 422.783 485.863 343.799C485.863 264.815 497.096 200.779 511.071 200.779Z" fill="#C1BDE3"/>
<path opacity="0.4" d="M510.806 202.9C524.25 202.9 535.129 266.406 535.129 344.771C535.129 423.135 524.25 486.641 510.806 486.641C497.362 486.641 486.483 423.135 486.483 344.771C486.483 266.406 497.362 202.9 510.806 202.9Z" fill="#BCB9E1"/>
<path opacity="0.4" d="M510.452 205.113C523.454 205.113 533.89 268.088 533.89 345.745C533.89 423.491 523.454 486.466 510.452 486.466C497.538 486.466 487.013 423.491 487.013 345.745C487.013 268.088 497.538 205.113 510.452 205.113Z" fill="#B8B4DF"/>
<path opacity="0.4" d="M510.187 207.234C522.658 207.234 532.741 269.679 532.741 346.805C532.741 423.843 522.658 486.287 510.187 486.287C497.715 486.287 487.632 423.843 487.632 346.805C487.632 269.679 497.715 207.234 510.187 207.234Z" fill="#B4AFDD"/>
<path opacity="0.4" d="M509.921 209.447C521.862 209.447 531.591 271.361 531.591 347.78C531.591 424.198 521.862 486.112 509.921 486.112C497.892 486.112 488.251 424.198 488.251 347.78C488.251 271.361 497.892 209.447 509.921 209.447Z" fill="#AFABDB"/>
<path opacity="0.5" d="M509.567 211.57C521.066 211.57 530.441 273.042 530.441 348.753C530.441 424.553 521.066 485.935 509.567 485.935C498.158 485.935 488.782 424.553 488.782 348.753C488.782 273.042 498.158 211.57 509.567 211.57Z" fill="#ABA6D9"/>
<path opacity="0.5" d="M509.302 213.781C520.27 213.781 529.203 274.633 529.203 349.725C529.203 424.818 520.27 485.758 509.302 485.758C498.334 485.758 489.401 424.818 489.401 349.725C489.401 274.633 498.334 213.781 509.302 213.781Z" fill="#A6A1D7"/>
<path opacity="0.5" d="M509.037 215.902C519.562 215.902 528.053 276.312 528.053 350.785C528.053 425.17 519.562 485.579 509.037 485.579C498.511 485.579 490.02 425.17 490.02 350.785C490.02 276.312 498.511 215.902 509.037 215.902Z" fill="#A29DD6"/>
<path opacity="0.5" d="M508.771 218.117C518.766 218.117 526.903 277.908 526.903 351.762C526.903 425.527 518.766 485.406 508.771 485.406C498.688 485.406 490.551 425.527 490.551 351.762C490.551 277.908 498.688 218.117 508.771 218.117Z" fill="#9D98D4"/>
<path opacity="0.6" d="M508.418 220.234C517.97 220.234 525.665 279.583 525.665 352.729C525.665 425.875 517.97 485.224 508.418 485.224C498.954 485.224 491.17 425.875 491.17 352.729C491.17 279.583 498.954 220.234 508.418 220.234Z" fill="#9993D2"/>
<path opacity="0.6" d="M508.152 222.449C517.174 222.449 524.515 281.179 524.515 353.706C524.515 426.233 517.174 485.051 508.152 485.051C499.131 485.051 491.789 426.233 491.789 353.706C491.789 281.179 499.131 222.449 508.152 222.449Z" fill="#948FD0"/>
<path opacity="0.6" d="M507.887 224.57C516.378 224.57 523.365 282.857 523.365 354.765C523.365 426.585 516.378 484.872 507.887 484.872C499.307 484.872 492.409 426.585 492.409 354.765C492.409 282.857 499.307 224.57 507.887 224.57Z" fill="#908ACE"/>
<path opacity="0.6" d="M507.533 226.693C515.67 226.693 522.127 284.45 522.127 355.739C522.127 426.939 515.67 484.695 507.533 484.695C499.484 484.695 492.939 426.939 492.939 355.739C492.939 284.45 499.484 226.693 507.533 226.693Z" fill="#8C85CC"/>
<path opacity="0.7" d="M507.268 228.904C514.874 228.904 520.977 286.13 520.977 356.711C520.977 427.293 514.874 484.518 507.268 484.518C499.661 484.518 493.558 427.293 493.558 356.711C493.558 286.13 499.661 228.904 507.268 228.904Z" fill="#8781CA"/>
<path opacity="0.7" d="M507.002 231.029C514.078 231.029 519.827 287.724 519.827 357.686C519.827 427.649 514.078 484.344 507.002 484.344C499.927 484.344 494.177 427.649 494.177 357.686C494.177 287.724 499.927 231.029 507.002 231.029Z" fill="#837CC8"/>
<path opacity="0.7" d="M506.649 233.24C513.282 233.24 518.677 289.405 518.677 358.748C518.677 428.002 513.282 484.167 506.649 484.167C500.103 484.167 494.708 428.002 494.708 358.748C494.708 289.405 500.103 233.24 506.649 233.24Z" fill="#7E77C6"/>
<path opacity="0.7" d="M506.383 235.361C512.486 235.361 517.439 291.083 517.439 359.719C517.439 428.354 512.486 483.988 506.383 483.988C500.28 483.988 495.327 428.354 495.327 359.719C495.327 291.083 500.28 235.361 506.383 235.361Z" fill="#7A73C4"/>
<path opacity="0.8" d="M506.118 237.574C511.69 237.574 516.289 292.677 516.289 360.693C516.289 428.71 511.69 483.813 506.118 483.813C500.457 483.813 495.946 428.71 495.946 360.693C495.946 292.677 500.457 237.574 506.118 237.574Z" fill="#756EC2"/>
<path opacity="0.8" d="M505.853 239.693C510.983 239.693 515.14 294.354 515.14 361.663C515.14 429.06 510.983 483.632 505.853 483.632C500.723 483.632 496.566 429.06 496.566 361.663C496.566 294.354 500.723 239.693 505.853 239.693Z" fill="#7169C0"/>
<path opacity="0.8" d="M505.499 241.908C510.187 241.908 513.901 295.95 513.901 362.728C513.901 429.417 510.187 483.459 505.499 483.459C500.9 483.459 497.096 429.417 497.096 362.728C497.096 295.95 500.9 241.908 505.499 241.908Z" fill="#6D64BE"/>
<path opacity="0.8" d="M505.233 244.029C509.39 244.029 512.751 297.629 512.751 363.699C512.751 429.77 509.39 483.369 505.233 483.369C501.076 483.369 497.715 429.77 497.715 363.699C497.715 297.629 501.076 244.029 505.233 244.029Z" fill="#6860BC"/>
<path opacity="0.9" d="M504.968 246.152C508.594 246.152 511.602 299.221 511.602 364.672C511.602 430.124 508.594 483.192 504.968 483.192C501.253 483.192 498.334 430.124 498.334 364.672C498.334 299.221 501.253 246.152 504.968 246.152Z" fill="#645BBA"/>
<path opacity="0.9" d="M504.614 248.363C507.798 248.363 510.363 300.901 510.363 365.645C510.363 430.477 507.798 483.015 504.614 483.015C501.43 483.015 498.865 430.477 498.865 365.645C498.865 300.901 501.43 248.363 504.614 248.363Z" fill="#5F56B8"/>
<path opacity="0.9" d="M504.349 250.488C507.002 250.488 509.214 302.496 509.214 366.709C509.214 430.833 507.002 482.841 504.349 482.841C501.696 482.841 499.484 430.833 499.484 366.709C499.484 302.496 501.696 250.488 504.349 250.488Z" fill="#5B52B6"/>
<path opacity="0.9" d="M504.084 252.695C506.295 252.695 508.064 304.172 508.064 367.677C508.064 431.183 506.295 482.659 504.084 482.659C501.872 482.659 500.103 431.183 500.103 367.677C500.103 304.172 501.872 252.695 504.084 252.695Z" fill="#564DB4"/>
<path d="M503.73 254.822C505.499 254.822 506.914 305.768 506.914 368.655C506.914 431.541 505.499 482.487 503.818 482.487C502.049 482.487 500.634 431.541 500.634 368.655C500.634 305.768 502.049 254.822 503.73 254.822Z" fill="#5248B2"/>
<path d="M503.464 257.031C504.703 257.031 505.676 307.446 505.676 369.625C505.676 431.892 504.703 482.308 503.464 482.308C502.226 482.308 501.253 431.892 501.253 369.625C501.253 307.446 502.226 257.031 503.464 257.031Z" fill="#4D44B0"/>
<path d="M503.199 259.154C503.907 259.154 504.526 309.039 504.526 370.687C504.526 432.247 503.907 482.131 503.199 482.131C502.492 482.131 501.872 432.247 501.872 370.687C501.872 309.039 502.492 259.154 503.199 259.154Z" fill="#493FAE"/>
</g>
<path d="M118.894 462.935C118.894 459.81 118.894 456.685 118.894 453.56C118.894 390.349 118.894 327.138 118.894 263.928C118.894 253.373 118.894 242.789 118.894 232.175C118.894 231.349 118.894 230.494 118.894 229.61C118.894 222.18 121.989 215.37 126.854 210.505C131.807 205.552 138.529 202.545 146.047 202.545C147.462 202.545 148.907 202.545 150.381 202.545C150.971 202.545 151.59 202.545 152.238 202.545C258.847 202.545 365.486 202.545 472.154 202.545C473.687 202.545 475.191 202.545 476.665 202.545C477.785 202.545 478.905 202.545 480.026 202.545C490.551 202.545 499.661 208.559 504.172 217.316C506.029 221.03 507.091 225.188 507.091 229.61C507.091 233.914 507.091 238.219 507.091 242.523C507.091 253.491 507.091 264.429 507.091 275.337C507.091 294.383 507.091 313.399 507.091 332.386C507.091 375.903 507.091 419.419 507.091 462.935C507.091 467.004 508.064 470.807 509.656 474.256C513.813 483.19 522.746 489.558 533.094 489.912C533.094 489.971 533.094 490 533.094 490C524.427 490 515.759 490 507.091 490C503.553 490 500.015 490 496.477 490C494.885 490 493.293 490 491.701 490C379.077 490 266.454 490 153.83 490C153.182 490 152.533 490 151.885 490C149.939 490 147.993 490 146.047 490C138.529 490 131.807 486.904 126.854 482.04C121.989 477.087 118.894 470.365 118.894 462.935Z" fill="url(#paint13_linear_7_517)"/>
<mask id="mask0_7_517" style="mask-type:luminance" maskUnits="userSpaceOnUse" x="118" y="202" width="416" height="288">
<path d="M118.911 462.898C118.911 459.773 118.911 456.645 118.911 453.514C118.911 390.315 118.911 327.116 118.911 263.917C118.911 253.35 118.911 242.784 118.911 232.217C118.911 231.351 118.911 230.484 118.911 229.617C118.911 222.17 121.963 215.395 126.872 210.486C131.78 205.577 138.556 202.525 146.003 202.525C147.465 202.525 148.928 202.525 150.39 202.525C151.003 202.525 151.616 202.525 152.23 202.525C258.868 202.525 365.507 202.525 472.145 202.525C473.655 202.525 475.164 202.525 476.674 202.525C477.788 202.525 478.902 202.525 480.017 202.525C490.507 202.525 499.652 208.575 504.154 217.358C506.038 221.038 507.1 225.212 507.1 229.617C507.1 233.91 507.1 238.202 507.1 242.495C507.1 253.451 507.1 264.409 507.1 275.371C507.1 294.37 507.1 313.368 507.1 332.367C507.111 332.367 507.12 332.367 507.126 332.367C507.126 375.877 507.126 419.388 507.126 462.898C507.126 466.958 508.037 470.823 509.656 474.281C513.83 483.214 522.755 489.538 533.121 489.954C533.121 489.96 533.121 489.969 533.121 489.981C524.447 489.981 515.773 489.981 507.1 489.981C503.573 489.981 500.044 489.984 496.512 489.989C494.92 489.989 493.325 489.989 491.727 489.989C379.086 489.989 266.445 489.989 153.804 489.989C153.155 489.989 152.51 489.989 151.867 489.989C149.909 489.989 147.955 489.989 146.003 489.989C138.556 489.989 131.78 486.938 126.872 482.029C121.963 477.12 118.911 470.345 118.911 462.898Z" fill="white"/>
</mask>
<g mask="url(#mask0_7_517)">
<g style="mix-blend-mode:multiply" opacity="0.6">
<path opacity="0.1" d="M-26.4261 478.679C-26.4261 456.832 132.249 439.143 327.896 439.143C523.631 439.143 682.306 456.832 682.306 478.679C682.306 500.525 523.631 518.215 327.896 518.215C132.249 518.215 -26.4261 500.525 -26.4261 478.679Z" fill="url(#paint14_linear_7_517)"/>
<path opacity="0.1" d="M-22.0921 479.034C-22.0921 457.718 134.637 440.471 327.984 440.471C521.331 440.471 678.06 457.718 678.06 479.034C678.06 500.261 521.331 517.509 327.984 517.509C134.637 517.509 -22.0921 500.261 -22.0921 479.034Z" fill="url(#paint15_linear_7_517)"/>
<path opacity="0.1" d="M-17.7582 479.298C-17.7582 458.601 137.025 441.885 328.072 441.885C519.031 441.885 673.903 458.601 673.903 479.298C673.903 499.995 519.031 516.8 328.072 516.8C137.025 516.8 -17.7582 499.995 -17.7582 479.298Z" fill="url(#paint16_linear_7_517)"/>
<path opacity="0.1" d="M-13.4242 479.653C-13.4242 459.576 139.502 443.213 328.073 443.213C516.732 443.213 669.658 459.576 669.658 479.653C669.658 499.819 516.732 516.094 328.073 516.094C139.502 516.094 -13.4242 499.819 -13.4242 479.653Z" fill="url(#paint17_linear_7_517)"/>
<path opacity="0.2" d="M-9.0903 480.006C-9.0903 460.459 141.89 444.627 328.161 444.627C514.432 444.627 665.501 460.459 665.501 480.006C665.501 499.553 514.432 515.385 328.161 515.385C141.89 515.385 -9.0903 499.553 -9.0903 480.006Z" fill="url(#paint18_linear_7_517)"/>
<path opacity="0.2" d="M-4.75638 480.359C-4.75638 461.343 144.278 445.953 328.249 445.953C512.132 445.953 661.255 461.343 661.255 480.359C661.255 499.287 512.132 514.677 328.249 514.677C144.278 514.677 -4.75638 499.287 -4.75638 480.359Z" fill="url(#paint19_linear_7_517)"/>
<path opacity="0.2" d="M-0.422409 480.624C-0.422409 462.226 146.755 447.367 328.338 447.367C509.833 447.367 657.01 462.226 657.01 480.624C657.01 499.021 509.833 513.968 328.338 513.968C146.755 513.968 -0.422409 499.021 -0.422409 480.624Z" fill="url(#paint20_linear_7_517)"/>
<path opacity="0.2" d="M3.91153 480.979C3.91153 463.112 149.143 448.695 328.338 448.695C507.533 448.695 652.853 463.112 652.853 480.979C652.853 498.757 507.533 513.262 328.338 513.262C149.143 513.262 3.91153 498.757 3.91153 480.979Z" fill="url(#paint21_linear_7_517)"/>
<path opacity="0.3" d="M8.24547 481.332C8.24547 463.996 151.619 450.021 328.426 450.021C505.322 450.021 648.607 463.996 648.607 481.332C648.607 498.579 505.322 512.554 328.426 512.554C151.619 512.554 8.24547 498.579 8.24547 481.332Z" fill="url(#paint22_linear_7_517)"/>
<path opacity="0.3" d="M12.5794 481.596C12.5794 464.968 154.007 451.436 328.515 451.436C503.022 451.436 644.45 464.968 644.45 481.596C644.45 498.313 503.022 511.845 328.515 511.845C154.007 511.845 12.5794 498.313 12.5794 481.596Z" fill="url(#paint23_linear_7_517)"/>
<path opacity="0.3" d="M16.9133 481.951C16.9133 465.854 156.395 452.764 328.515 452.764C500.723 452.764 640.205 465.854 640.205 481.951C640.205 498.049 500.723 511.139 328.515 511.139C156.395 511.139 16.9133 498.049 16.9133 481.951Z" fill="url(#paint24_linear_7_517)"/>
<path opacity="0.3" d="M21.2473 482.304C21.2473 466.737 158.872 454.178 328.603 454.178C498.423 454.178 636.048 466.737 636.048 482.304C636.048 497.783 498.423 510.342 328.603 510.342C158.872 510.342 21.2473 497.783 21.2473 482.304Z" fill="url(#paint25_linear_7_517)"/>
<path opacity="0.4" d="M25.5812 482.571C25.5812 467.623 161.26 455.506 328.692 455.506C496.123 455.506 631.802 467.623 631.802 482.571C631.802 497.519 496.123 509.636 328.692 509.636C161.26 509.636 25.5812 497.519 25.5812 482.571Z" fill="url(#paint26_linear_7_517)"/>
<path opacity="0.4" d="M29.9152 482.925C29.9152 468.508 163.648 456.922 328.78 456.922C493.824 456.922 627.645 468.508 627.645 482.925C627.645 497.342 493.824 508.929 328.78 508.929C163.648 508.929 29.9152 497.342 29.9152 482.925Z" fill="url(#paint27_linear_7_517)"/>
<path opacity="0.4" d="M34.2491 483.277C34.2491 469.391 166.125 458.246 328.78 458.246C491.524 458.246 623.4 469.391 623.4 483.277C623.4 497.075 491.524 508.219 328.78 508.219C166.125 508.219 34.2491 497.075 34.2491 483.277Z" fill="url(#paint28_linear_7_517)"/>
<path opacity="0.4" d="M38.583 483.544C38.583 470.365 168.513 459.574 328.869 459.574C489.224 459.574 619.243 470.365 619.243 483.544C619.243 496.811 489.224 507.513 328.869 507.513C168.513 507.513 38.583 496.811 38.583 483.544Z" fill="url(#paint29_linear_7_517)"/>
<path opacity="0.5" d="M42.917 483.9C42.917 471.252 170.989 460.992 328.957 460.992C486.925 460.992 614.997 471.252 614.997 483.9C614.997 496.548 486.925 506.808 328.957 506.808C170.989 506.808 42.917 496.548 42.917 483.9Z" fill="url(#paint30_linear_7_517)"/>
<path opacity="0.5" d="M47.2509 484.251C47.2509 472.134 173.377 462.316 329.045 462.316C484.625 462.316 610.84 472.134 610.84 484.251C610.84 496.28 484.625 506.098 329.045 506.098C173.377 506.098 47.2509 496.28 47.2509 484.251Z" fill="url(#paint31_linear_7_517)"/>
<path opacity="0.5" d="M51.5849 484.518C51.5849 473.019 175.766 463.732 329.045 463.732C482.325 463.732 606.595 473.019 606.595 484.518C606.595 496.016 482.325 505.391 329.045 505.391C175.766 505.391 51.5849 496.016 51.5849 484.518Z" fill="url(#paint32_linear_7_517)"/>
<path opacity="0.5" d="M55.9188 484.871C55.9188 473.903 178.242 465.059 329.134 465.059C480.026 465.059 602.349 473.903 602.349 484.871C602.349 495.838 480.026 504.683 329.134 504.683C178.242 504.683 55.9188 495.838 55.9188 484.871Z" fill="url(#paint33_linear_7_517)"/>
<path opacity="0.6" d="M60.2527 485.224C60.2527 474.787 180.63 466.385 329.222 466.385C477.726 466.385 598.192 474.787 598.192 485.224C598.192 495.573 477.726 503.975 329.222 503.975C180.63 503.975 60.2527 495.573 60.2527 485.224Z" fill="url(#paint34_linear_7_517)"/>
<path opacity="0.6" d="M64.5867 485.488C64.5867 475.759 183.107 467.799 329.222 467.799C475.427 467.799 593.946 475.759 593.946 485.488C593.946 495.306 475.427 503.266 329.222 503.266C183.107 503.266 64.5867 495.306 64.5867 485.488Z" fill="url(#paint35_linear_7_517)"/>
<path opacity="0.6" d="M68.9206 485.842C68.9206 476.643 185.495 469.125 329.311 469.125C473.127 469.125 589.789 476.643 589.789 485.842C589.789 495.04 473.127 502.558 329.311 502.558C185.495 502.558 68.9206 495.04 68.9206 485.842Z" fill="url(#paint36_linear_7_517)"/>
<path opacity="0.6" d="M73.1661 486.194C73.1661 477.526 187.883 470.539 329.399 470.539C470.916 470.539 585.544 477.526 585.544 486.194C585.544 494.774 470.916 501.85 329.399 501.85C187.883 501.85 73.1661 494.774 73.1661 486.194Z" fill="url(#paint37_linear_7_517)"/>
<path opacity="0.7" d="M77.5 486.461C77.5 478.412 190.359 471.867 329.488 471.867C468.616 471.867 581.387 478.412 581.387 486.461C581.387 494.598 468.616 501.143 329.488 501.143C190.359 501.143 77.5 494.598 77.5 486.461Z" fill="url(#paint38_linear_7_517)"/>
<path opacity="0.7" d="M81.834 486.816C81.834 479.298 192.747 473.283 329.488 473.283C466.316 473.283 577.141 479.298 577.141 486.816C577.141 494.334 466.316 500.348 329.488 500.348C192.747 500.348 81.834 494.334 81.834 486.816Z" fill="url(#paint39_linear_7_517)"/>
<path opacity="0.7" d="M86.1679 487.169C86.1679 480.182 195.136 474.609 329.576 474.609C464.017 474.609 572.984 480.182 572.984 487.169C572.984 494.068 464.017 499.64 329.576 499.64C195.136 499.64 86.1679 494.068 86.1679 487.169Z" fill="url(#paint40_linear_7_517)"/>
<path opacity="0.7" d="M90.5019 487.434C90.5019 481.154 197.612 475.936 329.665 475.936C461.717 475.936 568.739 481.154 568.739 487.434C568.739 493.802 461.717 498.932 329.665 498.932C197.612 498.932 90.5019 493.802 90.5019 487.434Z" fill="url(#paint41_linear_7_517)"/>
<path opacity="0.8" d="M94.8358 487.79C94.8358 482.041 200 477.354 329.753 477.354C459.417 477.354 564.582 482.041 564.582 487.79C564.582 493.539 459.417 498.227 329.753 498.227C200 498.227 94.8358 493.539 94.8358 487.79Z" fill="url(#paint42_linear_7_517)"/>
<path opacity="0.8" d="M99.1697 488.144C99.1697 482.925 202.477 478.68 329.753 478.68C457.118 478.68 560.336 482.925 560.336 488.144C560.336 493.362 457.118 497.519 329.753 497.519C202.477 497.519 99.1697 493.362 99.1697 488.144Z" fill="url(#paint43_linear_7_517)"/>
<path opacity="0.8" d="M103.504 488.41C103.504 483.81 204.865 480.096 329.841 480.096C454.818 480.096 556.179 483.81 556.179 488.41C556.179 493.097 454.818 496.812 329.841 496.812C204.865 496.812 103.504 493.097 103.504 488.41Z" fill="url(#paint44_linear_7_517)"/>
<path opacity="0.8" d="M107.838 488.761C107.838 484.692 207.253 481.42 329.93 481.42C452.519 481.42 551.934 484.692 551.934 488.761C551.934 492.83 452.519 496.102 329.93 496.102C207.253 496.102 107.838 492.83 107.838 488.761Z" fill="url(#paint45_linear_7_517)"/>
<path opacity="0.9" d="M112.172 489.116C112.172 485.578 209.729 482.836 329.93 482.836C450.219 482.836 547.688 485.578 547.688 489.116C547.688 492.565 450.219 495.396 329.93 495.396C209.729 495.396 112.172 492.565 112.172 489.116Z" fill="url(#paint46_linear_7_517)"/>
<path opacity="0.9" d="M116.506 489.383C116.506 486.552 212.118 484.164 330.018 484.164C447.919 484.164 543.531 486.552 543.531 489.383C543.531 492.301 447.919 494.689 330.018 494.689C212.118 494.689 116.506 492.301 116.506 489.383Z" fill="url(#paint47_linear_7_517)"/>
<path opacity="0.9" d="M120.839 489.738C120.839 487.438 214.506 485.492 330.107 485.492C445.62 485.492 539.286 487.438 539.286 489.738C539.286 492.037 445.62 493.983 330.107 493.983C214.506 493.983 120.839 492.037 120.839 489.738Z" fill="url(#paint48_linear_7_517)"/>
<path opacity="0.9" d="M125.173 490.09C125.173 488.321 216.982 486.906 330.195 486.906C443.32 486.906 535.129 488.321 535.129 490.09C535.129 491.859 443.32 493.274 330.195 493.274C216.982 493.274 125.173 491.859 125.173 490.09Z" fill="url(#paint49_linear_7_517)"/>
<path d="M129.507 490.353C129.507 489.203 219.37 488.23 330.195 488.23C441.02 488.23 530.883 489.203 530.883 490.353C530.883 491.592 441.02 492.564 330.195 492.564C219.37 492.564 129.507 491.592 129.507 490.353Z" fill="url(#paint50_linear_7_517)"/>
<path d="M133.841 490.708C133.841 490.089 221.847 489.646 330.284 489.646C438.809 489.646 526.726 490.089 526.726 490.708C526.726 491.327 438.809 491.858 330.284 491.858C221.847 491.858 133.841 491.327 133.841 490.708Z" fill="url(#paint51_linear_7_517)"/>
</g>
<path d="M118.805 462.847C118.805 459.722 118.805 456.597 118.805 453.472C118.805 379.706 118.805 305.941 118.805 232.175C118.805 231.291 118.805 230.407 118.805 229.522C118.805 222.092 121.812 215.37 126.765 210.417C131.63 205.553 138.441 202.457 145.87 202.457C147.344 202.457 148.818 202.457 150.293 202.457C257.55 202.457 364.778 202.457 471.977 202.457C474.63 202.457 477.254 202.457 479.849 202.457C490.374 202.457 499.484 208.471 503.995 217.316C505.941 220.943 507.002 225.188 507.002 229.522C507.002 233.827 507.002 238.131 507.002 242.435C507.002 272.39 507.002 302.344 507.002 332.298C507.002 375.815 507.002 419.331 507.002 462.847C507.002 466.916 507.887 470.719 509.567 474.257C513.724 483.19 522.658 489.47 533.006 489.912C524.338 489.912 515.67 489.912 507.002 489.912C501.872 489.912 496.742 489.912 491.612 489.912C378.34 489.912 265.039 489.912 151.708 489.912C149.762 489.912 147.816 489.912 145.87 489.912C138.441 489.912 131.63 486.905 126.765 481.952C121.812 477.087 118.805 470.277 118.805 462.847Z" fill="url(#paint52_linear_7_517)"/>
<path style="mix-blend-mode:overlay" d="M118.805 453.472C122.078 456.037 125.969 457.806 129.95 458.779C134.195 459.752 138.441 459.486 142.775 459.752C142.775 463.909 142.951 467.977 143.305 472.134C143.924 479.122 147.285 484.605 151.708 489.912C149.762 489.912 147.816 489.912 145.87 489.912C138.441 489.912 131.63 486.905 126.765 481.952C121.812 477.087 118.805 470.277 118.805 462.847C118.805 459.722 118.805 456.597 118.805 453.472ZM118.805 232.175C122.432 229.434 126.677 227.665 131.099 226.692C134.637 225.896 140.829 224.569 144.013 226.957C143.895 247.064 143.777 267.171 143.659 287.278C143.482 322.422 143.305 357.565 143.128 392.708C143.01 410.693 142.892 428.677 142.775 446.661C142.775 450.995 142.686 455.329 142.775 459.752C138.441 459.486 134.195 459.752 129.95 458.779C125.969 457.806 122.078 456.037 118.805 453.472C118.805 379.706 118.805 305.941 118.805 232.175ZM126.765 210.417C131.63 205.553 138.441 202.457 145.87 202.457C147.344 202.457 148.818 202.457 150.293 202.457C148.524 206.26 146.578 209.975 145.339 214.044C144.101 218.289 144.013 222.535 144.013 226.957C140.829 224.569 134.637 225.896 131.099 226.692C126.677 227.665 122.432 229.434 118.805 232.175C118.805 231.291 118.805 230.407 118.805 229.522C118.805 222.092 121.812 215.37 126.765 210.417ZM142.775 459.752C252.007 462.228 371.058 449.757 480.114 457.01C481.618 463.466 481.264 473.107 483.298 480.36C484.271 483.632 485.686 486.64 487.898 488.232C488.163 488.497 491.612 489.647 491.612 489.912C378.34 489.912 265.039 489.912 151.708 489.912C147.285 484.605 143.924 479.122 143.305 472.134C142.951 467.977 142.775 463.909 142.775 459.752ZM144.013 226.957C253.423 227.488 368.316 226.426 477.815 226.957C477.372 247.831 477.461 268.085 477.638 288.074C477.992 323.454 478.788 357.86 479.053 393.239C479.23 410.928 479.318 428.883 479.141 447.28C479.141 450.641 479.407 453.914 480.114 457.01C371.058 449.757 252.007 462.228 142.775 459.752C142.686 455.329 142.775 450.995 142.775 446.661C142.892 428.677 143.01 410.693 143.128 392.708C143.305 357.565 143.482 322.422 143.659 287.278C143.777 267.171 143.895 247.064 144.013 226.957ZM150.293 202.457C257.55 202.457 364.778 202.457 471.977 202.457C472.773 211.302 477.992 218.112 477.815 226.957C368.316 226.426 253.423 227.488 144.013 226.957C144.013 222.535 144.101 218.289 145.339 214.044C146.578 209.975 148.524 206.26 150.293 202.457ZM480.114 457.01C493.647 457.983 496.389 471.25 509.567 474.257C513.724 483.19 522.658 489.47 533.006 489.912C524.338 489.912 515.67 489.912 507.002 489.912C501.872 489.912 496.742 489.912 491.612 489.912C491.612 489.647 488.163 488.497 487.898 488.232C485.686 486.64 484.271 483.632 483.298 480.36C481.264 473.107 481.618 463.466 480.114 457.01ZM477.815 226.957C480.822 226.957 483.917 227.222 486.571 227.399C488.517 227.576 490.286 227.93 491.878 228.461C497.715 230.495 502.845 235.979 507.002 242.435C507.002 272.39 507.002 302.344 507.002 332.298C507.002 375.815 507.002 419.331 507.002 462.847C507.002 466.916 507.887 470.719 509.567 474.257C496.389 471.25 493.647 457.983 480.114 457.01C479.407 453.914 479.141 450.641 479.141 447.28C479.318 428.883 479.23 410.928 479.053 393.239C478.788 357.86 477.992 323.454 477.638 288.074C477.461 268.085 477.372 247.831 477.815 226.957ZM471.977 202.457C474.63 202.457 477.254 202.457 479.849 202.457C490.374 202.457 499.484 208.471 503.995 217.316C505.941 220.943 507.002 225.188 507.002 229.522C507.002 233.827 507.002 238.131 507.002 242.435C502.845 235.979 497.715 230.495 491.878 228.461C490.286 227.93 488.517 227.576 486.571 227.399C483.917 227.222 480.822 226.957 477.815 226.957C477.992 218.112 472.773 211.302 471.977 202.457Z" fill="url(#paint53_linear_7_517)"/>
<path style="mix-blend-mode:screen" fill-rule="evenodd" clip-rule="evenodd" d="M128.269 483.367C118.717 473.815 120.22 460.99 120.22 448.607C120.22 433.925 120.22 419.242 120.22 404.56C120.22 374.488 120.22 344.416 120.22 314.343C119.778 314.432 119.247 314.609 118.805 314.786C118.805 287.249 118.805 259.712 118.805 232.175C118.805 231.291 118.805 230.407 118.805 229.522C118.805 224.746 120.043 220.235 122.255 216.343C122.726 215.459 123.257 214.633 123.847 213.867C124.318 213.159 124.82 212.511 125.35 211.921C125.822 211.39 126.294 210.889 126.765 210.417C127.178 209.946 127.65 209.503 128.181 209.091C129.242 208.147 130.362 207.322 131.542 206.614C133.311 205.494 135.197 204.58 137.202 203.872C139.944 202.988 142.863 202.457 145.87 202.457C147.344 202.457 148.818 202.457 150.293 202.457C190.625 202.457 230.986 202.457 271.378 202.457C338.244 202.457 405.111 202.457 471.977 202.457C474.63 202.457 477.254 202.457 479.849 202.457C490.374 202.457 499.484 208.471 503.995 217.316C504.29 217.906 504.585 218.496 504.88 219.085C504.88 219.144 504.88 219.174 504.88 219.174C505.233 219.999 505.528 220.825 505.764 221.65C506.118 222.653 506.383 223.685 506.56 224.746C506.855 226.338 507.002 227.93 507.002 229.522C507.002 233.827 507.002 238.131 507.002 242.435C507.002 271.092 507.002 299.75 507.002 328.407C507.002 329.704 507.002 331.001 507.002 332.298C507.002 375.815 507.002 419.331 507.002 462.847C507.002 466.916 507.887 470.719 509.567 474.257C513.724 483.19 522.658 489.47 533.006 489.912C524.338 489.912 515.67 489.912 507.002 489.912C501.872 489.912 496.742 489.912 491.612 489.912C420.972 489.912 350.332 489.912 279.692 489.912C237.001 489.912 194.34 489.912 151.708 489.912C149.762 489.912 147.816 489.912 145.87 489.912C143.128 489.912 140.386 489.47 137.91 488.674C135.728 488.025 133.723 487.141 131.895 486.021C130.598 485.195 129.389 484.311 128.269 483.367Z" fill="url(#paint54_linear_7_517)"/>
</g>
</g>
</g>
<defs>
<filter id="filter0_d_7_517" x="-1.52588e-05" y="0" width="662.69" height="498" filterUnits="userSpaceOnUse" color-interpolation-filters="sRGB">
<feFlood flood-opacity="0" result="BackgroundImageFix"/>
<feColorMatrix in="SourceAlpha" type="matrix" values="0 0 0 0 0 0 0 0 0 0 0 0 0 0 0 0 0 0 127 0" result="hardAlpha"/>
<feOffset dy="4"/>
<feGaussianBlur stdDeviation="2"/>
<feComposite in2="hardAlpha" operator="out"/>
<feColorMatrix type="matrix" values="0 0 0 0 0 0 0 0 0 0 0 0 0 0 0 0 0 0 0.39 0"/>
<feBlend mode="normal" in2="BackgroundImageFix" result="effect1_dropShadow_7_517"/>
<feBlend mode="normal" in="SourceGraphic" in2="effect1_dropShadow_7_517" result="shape"/>
</filter>
<linearGradient id="paint0_linear_7_517" x1="513.547" y1="76.9501" x2="613.228" y2="481.068" gradientUnits="userSpaceOnUse">
<stop stop-color="#A5CDFD"/>
<stop offset="1" stop-color="#C5AEFD"/>
</linearGradient>
<linearGradient id="paint1_linear_7_517" x1="187.441" y1="175.569" x2="558.744" y2="439.321" gradientUnits="userSpaceOnUse">
<stop stop-color="#D4D4D4"/>
<stop offset="1" stop-color="#3D3D3D"/>
</linearGradient>
<linearGradient id="paint2_linear_7_517" x1="187.441" y1="175.569" x2="558.744" y2="439.321" gradientUnits="userSpaceOnUse">
<stop stop-color="#D4D4D4"/>
<stop offset="1" stop-color="#3D3D3D"/>
</linearGradient>
<radialGradient id="paint3_radial_7_517" cx="0" cy="0" r="1" gradientUnits="userSpaceOnUse" gradientTransform="translate(100.939 83.8521) scale(355.383 355.383)">
<stop stop-color="white"/>
<stop offset="0.7" stop-color="#B6ACC6"/>
<stop offset="1" stop-color="white"/>
</radialGradient>
<radialGradient id="paint4_radial_7_517" cx="0" cy="0" r="1" gradientUnits="userSpaceOnUse" gradientTransform="translate(41.3249 217.67) scale(176.011 176.011)">
<stop stop-color="white"/>
<stop offset="0.7" stop-color="#B6ACC6"/>
<stop offset="1" stop-color="white"/>
</radialGradient>
<radialGradient id="paint5_radial_7_517" cx="0" cy="0" r="1" gradientUnits="userSpaceOnUse" gradientTransform="translate(279.78 36.0867) scale(416.854 416.854)">
<stop stop-color="white"/>
<stop offset="0.7" stop-color="#B6ACC6"/>
<stop offset="1" stop-color="white"/>
</radialGradient>
<radialGradient id="paint6_radial_7_517" cx="0" cy="0" r="1" gradientUnits="userSpaceOnUse" gradientTransform="translate(459.241 181.679) scale(317.439 317.439)">
<stop stop-color="white"/>
<stop offset="0.7" stop-color="#B6ACC6"/>
<stop offset="1" stop-color="white"/>
</radialGradient>
<radialGradient id="paint7_radial_7_517" cx="0" cy="0" r="1" gradientUnits="userSpaceOnUse" gradientTransform="translate(219.193 181.679) scale(317.439)">
<stop stop-color="white"/>
<stop offset="0.7" stop-color="#B6ACC6"/>
<stop offset="1" stop-color="white"/>
</radialGradient>
<radialGradient id="paint8_radial_7_517" cx="0" cy="0" r="1" gradientUnits="userSpaceOnUse" gradientTransform="translate(382.026 280.119) scale(176.011 176.011)">
<stop stop-color="white"/>
<stop offset="0.7" stop-color="#B6ACC6"/>
<stop offset="1" stop-color="white"/>
</radialGradient>
<linearGradient id="paint9_linear_7_517" x1="224.766" y1="-37.6721" x2="408.472" y2="132.944" gradientUnits="userSpaceOnUse">
<stop stop-color="#A5CDFD"/>
<stop offset="1" stop-color="#C5AEFD"/>
</linearGradient>
<linearGradient id="paint10_linear_7_517" x1="366.636" y1="52.1012" x2="429.876" y2="136.392" gradientUnits="userSpaceOnUse">
<stop stop-color="#A5CDFD"/>
<stop offset="1" stop-color="#C5AEFD"/>
</linearGradient>
<linearGradient id="paint11_linear_7_517" x1="262.887" y1="294.803" x2="329.576" y2="294.803" gradientUnits="userSpaceOnUse">
<stop stop-color="#A5CDFD"/>
<stop offset="1" stop-color="#C5AEFD"/>
</linearGradient>
<linearGradient id="paint12_linear_7_517" x1="368.847" y1="21.9383" x2="539.993" y2="297.188" gradientUnits="userSpaceOnUse">
<stop stop-color="#A5CDFD"/>
<stop offset="1" stop-color="#C5AEFD"/>
</linearGradient>
<linearGradient id="paint13_linear_7_517" x1="118.894" y1="202.545" x2="533.094" y2="202.545" gradientUnits="userSpaceOnUse">
<stop stop-color="#A5CDFD"/>
<stop offset="1" stop-color="#C5AEFD"/>
</linearGradient>
<linearGradient id="paint14_linear_7_517" x1="-26.4261" y1="439.143" x2="682.306" y2="439.143" gradientUnits="userSpaceOnUse">
<stop stop-color="#A5CDFD"/>
<stop offset="1" stop-color="#C5AEFD"/>
</linearGradient>
<linearGradient id="paint15_linear_7_517" x1="-22.0921" y1="440.471" x2="678.06" y2="440.471" gradientUnits="userSpaceOnUse">
<stop stop-color="#A5CDFD"/>
<stop offset="1" stop-color="#C5AEFD"/>
</linearGradient>
<linearGradient id="paint16_linear_7_517" x1="-17.7582" y1="441.885" x2="673.903" y2="441.885" gradientUnits="userSpaceOnUse">
<stop stop-color="#A5CDFD"/>
<stop offset="1" stop-color="#C5AEFD"/>
</linearGradient>
<linearGradient id="paint17_linear_7_517" x1="-13.4242" y1="443.213" x2="669.658" y2="443.213" gradientUnits="userSpaceOnUse">
<stop stop-color="#A5CDFD"/>
<stop offset="1" stop-color="#C5AEFD"/>
</linearGradient>
<linearGradient id="paint18_linear_7_517" x1="-9.0903" y1="444.627" x2="665.501" y2="444.627" gradientUnits="userSpaceOnUse">
<stop stop-color="#A5CDFD"/>
<stop offset="1" stop-color="#C5AEFD"/>
</linearGradient>
<linearGradient id="paint19_linear_7_517" x1="-4.75638" y1="445.953" x2="661.255" y2="445.953" gradientUnits="userSpaceOnUse">
<stop stop-color="#A5CDFD"/>
<stop offset="1" stop-color="#C5AEFD"/>
</linearGradient>
<linearGradient id="paint20_linear_7_517" x1="-0.422409" y1="447.367" x2="657.01" y2="447.367" gradientUnits="userSpaceOnUse">
<stop stop-color="#A5CDFD"/>
<stop offset="1" stop-color="#C5AEFD"/>
</linearGradient>
<linearGradient id="paint21_linear_7_517" x1="3.91153" y1="448.695" x2="652.853" y2="448.695" gradientUnits="userSpaceOnUse">
<stop stop-color="#A5CDFD"/>
<stop offset="1" stop-color="#C5AEFD"/>
</linearGradient>
<linearGradient id="paint22_linear_7_517" x1="8.24547" y1="450.021" x2="648.607" y2="450.021" gradientUnits="userSpaceOnUse">
<stop stop-color="#A5CDFD"/>
<stop offset="1" stop-color="#C5AEFD"/>
</linearGradient>
<linearGradient id="paint23_linear_7_517" x1="12.5794" y1="451.436" x2="644.45" y2="451.436" gradientUnits="userSpaceOnUse">
<stop stop-color="#A5CDFD"/>
<stop offset="1" stop-color="#C5AEFD"/>
</linearGradient>
<linearGradient id="paint24_linear_7_517" x1="16.9133" y1="452.764" x2="640.205" y2="452.764" gradientUnits="userSpaceOnUse">
<stop stop-color="#A5CDFD"/>
<stop offset="1" stop-color="#C5AEFD"/>
</linearGradient>
<linearGradient id="paint25_linear_7_517" x1="21.2473" y1="454.178" x2="636.048" y2="454.178" gradientUnits="userSpaceOnUse">
<stop stop-color="#A5CDFD"/>
<stop offset="1" stop-color="#C5AEFD"/>
</linearGradient>
<linearGradient id="paint26_linear_7_517" x1="25.5812" y1="455.506" x2="631.802" y2="455.506" gradientUnits="userSpaceOnUse">
<stop stop-color="#A5CDFD"/>
<stop offset="1" stop-color="#C5AEFD"/>
</linearGradient>
<linearGradient id="paint27_linear_7_517" x1="29.9152" y1="456.922" x2="627.645" y2="456.922" gradientUnits="userSpaceOnUse">
<stop stop-color="#A5CDFD"/>
<stop offset="1" stop-color="#C5AEFD"/>
</linearGradient>
<linearGradient id="paint28_linear_7_517" x1="34.2491" y1="458.246" x2="623.4" y2="458.246" gradientUnits="userSpaceOnUse">
<stop stop-color="#A5CDFD"/>
<stop offset="1" stop-color="#C5AEFD"/>
</linearGradient>
<linearGradient id="paint29_linear_7_517" x1="38.583" y1="459.574" x2="619.243" y2="459.574" gradientUnits="userSpaceOnUse">
<stop stop-color="#A5CDFD"/>
<stop offset="1" stop-color="#C5AEFD"/>
</linearGradient>
<linearGradient id="paint30_linear_7_517" x1="42.917" y1="460.992" x2="614.997" y2="460.992" gradientUnits="userSpaceOnUse">
<stop stop-color="#A5CDFD"/>
<stop offset="1" stop-color="#C5AEFD"/>
</linearGradient>
<linearGradient id="paint31_linear_7_517" x1="47.2509" y1="462.316" x2="610.84" y2="462.316" gradientUnits="userSpaceOnUse">
<stop stop-color="#A5CDFD"/>
<stop offset="1" stop-color="#C5AEFD"/>
</linearGradient>
<linearGradient id="paint32_linear_7_517" x1="51.5849" y1="463.732" x2="606.595" y2="463.732" gradientUnits="userSpaceOnUse">
<stop stop-color="#A5CDFD"/>
<stop offset="1" stop-color="#C5AEFD"/>
</linearGradient>
<linearGradient id="paint33_linear_7_517" x1="55.9188" y1="465.059" x2="602.349" y2="465.059" gradientUnits="userSpaceOnUse">
<stop stop-color="#A5CDFD"/>
<stop offset="1" stop-color="#C5AEFD"/>
</linearGradient>
<linearGradient id="paint34_linear_7_517" x1="60.2527" y1="466.385" x2="598.192" y2="466.385" gradientUnits="userSpaceOnUse">
<stop stop-color="#A5CDFD"/>
<stop offset="1" stop-color="#C5AEFD"/>
</linearGradient>
<linearGradient id="paint35_linear_7_517" x1="64.5867" y1="467.799" x2="593.946" y2="467.799" gradientUnits="userSpaceOnUse">
<stop stop-color="#A5CDFD"/>
<stop offset="1" stop-color="#C5AEFD"/>
</linearGradient>
<linearGradient id="paint36_linear_7_517" x1="68.9206" y1="469.125" x2="589.789" y2="469.125" gradientUnits="userSpaceOnUse">
<stop stop-color="#A5CDFD"/>
<stop offset="1" stop-color="#C5AEFD"/>
</linearGradient>
<linearGradient id="paint37_linear_7_517" x1="73.1661" y1="470.539" x2="585.544" y2="470.539" gradientUnits="userSpaceOnUse">
<stop stop-color="#A5CDFD"/>
<stop offset="1" stop-color="#C5AEFD"/>
</linearGradient>
<linearGradient id="paint38_linear_7_517" x1="77.5" y1="471.867" x2="581.387" y2="471.867" gradientUnits="userSpaceOnUse">
<stop stop-color="#A5CDFD"/>
<stop offset="1" stop-color="#C5AEFD"/>
</linearGradient>
<linearGradient id="paint39_linear_7_517" x1="81.834" y1="473.283" x2="577.141" y2="473.283" gradientUnits="userSpaceOnUse">
<stop stop-color="#A5CDFD"/>
<stop offset="1" stop-color="#C5AEFD"/>
</linearGradient>
<linearGradient id="paint40_linear_7_517" x1="86.1679" y1="474.609" x2="572.984" y2="474.609" gradientUnits="userSpaceOnUse">
<stop stop-color="#A5CDFD"/>
<stop offset="1" stop-color="#C5AEFD"/>
</linearGradient>
<linearGradient id="paint41_linear_7_517" x1="90.5019" y1="475.936" x2="568.739" y2="475.936" gradientUnits="userSpaceOnUse">
<stop stop-color="#A5CDFD"/>
<stop offset="1" stop-color="#C5AEFD"/>
</linearGradient>
<linearGradient id="paint42_linear_7_517" x1="94.8358" y1="477.354" x2="564.582" y2="477.354" gradientUnits="userSpaceOnUse">
<stop stop-color="#A5CDFD"/>
<stop offset="1" stop-color="#C5AEFD"/>
</linearGradient>
<linearGradient id="paint43_linear_7_517" x1="99.1697" y1="478.68" x2="560.336" y2="478.68" gradientUnits="userSpaceOnUse">
<stop stop-color="#A5CDFD"/>
<stop offset="1" stop-color="#C5AEFD"/>
</linearGradient>
<linearGradient id="paint44_linear_7_517" x1="103.504" y1="480.096" x2="556.179" y2="480.096" gradientUnits="userSpaceOnUse">
<stop stop-color="#A5CDFD"/>
<stop offset="1" stop-color="#C5AEFD"/>
</linearGradient>
<linearGradient id="paint45_linear_7_517" x1="107.838" y1="481.42" x2="551.934" y2="481.42" gradientUnits="userSpaceOnUse">
<stop stop-color="#A5CDFD"/>
<stop offset="1" stop-color="#C5AEFD"/>
</linearGradient>
<linearGradient id="paint46_linear_7_517" x1="112.172" y1="482.836" x2="547.688" y2="482.836" gradientUnits="userSpaceOnUse">
<stop stop-color="#A5CDFD"/>
<stop offset="1" stop-color="#C5AEFD"/>
</linearGradient>
<linearGradient id="paint47_linear_7_517" x1="116.506" y1="484.164" x2="543.531" y2="484.164" gradientUnits="userSpaceOnUse">
<stop stop-color="#A5CDFD"/>
<stop offset="1" stop-color="#C5AEFD"/>
</linearGradient>
<linearGradient id="paint48_linear_7_517" x1="120.839" y1="485.492" x2="539.286" y2="485.492" gradientUnits="userSpaceOnUse">
<stop stop-color="#A5CDFD"/>
<stop offset="1" stop-color="#C5AEFD"/>
</linearGradient>
<linearGradient id="paint49_linear_7_517" x1="125.173" y1="486.906" x2="535.129" y2="486.906" gradientUnits="userSpaceOnUse">
<stop stop-color="#A5CDFD"/>
<stop offset="1" stop-color="#C5AEFD"/>
</linearGradient>
<linearGradient id="paint50_linear_7_517" x1="129.507" y1="488.23" x2="530.883" y2="488.23" gradientUnits="userSpaceOnUse">
<stop stop-color="#A5CDFD"/>
<stop offset="1" stop-color="#C5AEFD"/>
</linearGradient>
<linearGradient id="paint51_linear_7_517" x1="133.841" y1="489.646" x2="526.726" y2="489.646" gradientUnits="userSpaceOnUse">
<stop stop-color="#A5CDFD"/>
<stop offset="1" stop-color="#C5AEFD"/>
</linearGradient>
<linearGradient id="paint52_linear_7_517" x1="425.542" y1="198.919" x2="431.556" y2="486.64" gradientUnits="userSpaceOnUse">
<stop stop-color="#A5CDFD"/>
<stop offset="1" stop-color="#C5AEFD"/>
</linearGradient>
<linearGradient id="paint53_linear_7_517" x1="126.765" y1="481.952" x2="150.293" y2="202.457" gradientUnits="userSpaceOnUse">
<stop/>
<stop offset="1" stop-color="#E0E0E0"/>
</linearGradient>
<linearGradient id="paint54_linear_7_517" x1="126.765" y1="481.952" x2="270.051" y2="207.056" gradientUnits="userSpaceOnUse">
<stop/>
<stop offset="1" stop-color="#7B76B5"/>
</linearGradient>
</defs>
</svg>
