<svg width="220" height="153" viewBox="0 0 220 153" fill="none" xmlns="http://www.w3.org/2000/svg">
<g id="&#60;Group&#62;">
<path id="&#60;Path&#62;" d="M-0.046875 138.3C-0.046875 136.644 -0.046875 134.989 -0.046875 133.333C-0.046875 94.2491 -0.046875 55.1655 -0.046875 16.0819C-0.046875 15.6132 -0.046875 15.1446 -0.046875 14.676C-0.046875 10.7395 1.54646 7.17792 4.17078 4.5536C6.74824 1.97614 10.3567 0.335938 14.2932 0.335938C15.0742 0.335938 15.8552 0.335938 16.6363 0.335938C73.4653 0.335938 130.279 0.335938 187.077 0.335938C188.482 0.335938 189.873 0.335938 191.247 0.335938C196.824 0.335938 201.651 3.52261 204.041 8.20889C205.072 10.1303 205.634 12.3797 205.634 14.676C205.634 16.9566 205.634 19.2373 205.634 21.518C205.634 37.3889 205.634 53.2597 205.634 69.1306C205.634 92.1871 205.634 115.244 205.634 138.3C205.634 140.456 206.103 142.471 206.993 144.346C209.196 149.079 213.929 152.406 219.412 152.64C214.819 152.64 210.227 152.64 205.634 152.64C202.916 152.64 200.198 152.64 197.48 152.64C137.464 152.64 77.4331 152.64 17.3861 152.64C16.3551 152.64 15.3241 152.64 14.2932 152.64C10.3567 152.64 6.74824 151.047 4.17078 148.423C1.54646 145.845 -0.046875 142.237 -0.046875 138.3Z" fill="url(#paint0_linear_333_2065)"/>
<path id="&#60;Mesh&#62;" style="mix-blend-mode:overlay" d="M-0.046875 133.333C1.68705 134.692 3.74902 135.629 5.85785 136.145C8.10727 136.66 10.3567 136.519 12.653 136.66C12.653 138.863 12.7467 141.018 12.9341 143.221C13.2622 146.923 15.043 149.828 17.3861 152.64C16.3551 152.64 15.3241 152.64 14.2932 152.64C10.3567 152.64 6.74824 151.047 4.17078 148.423C1.54646 145.845 -0.046875 142.237 -0.046875 138.3C-0.046875 136.644 -0.046875 134.989 -0.046875 133.333ZM-0.046875 16.0819C1.8745 14.6291 4.12392 13.6919 6.46706 13.1764C8.34158 12.7546 11.622 12.0517 13.309 13.317C13.2466 23.9704 13.1841 34.6239 13.1216 45.2774C13.0279 63.8976 12.9341 82.5178 12.8404 101.138C12.7779 110.667 12.7154 120.196 12.653 129.724C12.653 132.021 12.6061 134.317 12.653 136.66C10.3567 136.519 8.10727 136.66 5.85785 136.145C3.74902 135.629 1.68705 134.692 -0.046875 133.333C-0.046875 94.2491 -0.046875 55.1655 -0.046875 16.0819ZM4.17078 4.5536C6.74824 1.97614 10.3567 0.335938 14.2932 0.335938C15.0742 0.335938 15.8552 0.335938 16.6363 0.335938C15.699 2.35104 14.6681 4.31928 14.012 6.47498C13.3559 8.72439 13.309 10.9738 13.309 13.317C11.622 12.0517 8.34158 12.7546 6.46706 13.1764C4.12392 13.6919 1.8745 14.6291 -0.046875 16.0819C-0.046875 15.6132 -0.046875 15.1446 -0.046875 14.676C-0.046875 10.7395 1.54646 7.17792 4.17078 4.5536ZM12.653 136.66C70.5286 137.972 133.606 131.365 191.388 135.207C192.185 138.628 191.997 143.736 193.075 147.579C193.59 149.313 194.34 150.906 195.512 151.75C195.652 151.89 197.48 152.5 197.48 152.64C137.464 152.64 77.4331 152.64 17.3861 152.64C15.043 149.828 13.2622 146.923 12.9341 143.221C12.7467 141.018 12.653 138.863 12.653 136.66ZM13.309 13.317C71.2784 13.5981 132.153 13.0358 190.17 13.317C189.935 24.3766 189.982 35.1082 190.076 45.6992C190.263 64.4443 190.685 82.674 190.826 101.419C190.919 110.792 190.966 120.305 190.872 130.052C190.872 131.833 191.013 133.567 191.388 135.207C133.606 131.365 70.5286 137.972 12.653 136.66C12.6061 134.317 12.653 132.021 12.653 129.724C12.7154 120.196 12.7779 110.667 12.8404 101.138C12.9341 82.5178 13.0279 63.8976 13.1216 45.2774C13.1841 34.6239 13.2466 23.9704 13.309 13.317ZM16.6363 0.335938C73.4653 0.335938 130.279 0.335938 187.077 0.335938C187.498 5.02222 190.263 8.63067 190.17 13.317C132.153 13.0358 71.2784 13.5981 13.309 13.317C13.309 10.9738 13.3559 8.72439 14.012 6.47498C14.6681 4.31928 15.699 2.35104 16.6363 0.335938ZM191.388 135.207C198.558 135.723 200.011 142.752 206.993 144.346C209.196 149.079 213.929 152.406 219.412 152.64C214.819 152.64 210.227 152.64 205.634 152.64C202.916 152.64 200.198 152.64 197.48 152.64C197.48 152.5 195.652 151.89 195.512 151.75C194.34 150.906 193.59 149.313 193.075 147.579C191.997 143.736 192.185 138.628 191.388 135.207ZM190.17 13.317C191.763 13.317 193.403 13.4575 194.809 13.5513C195.84 13.645 196.777 13.8324 197.621 14.1136C200.714 15.1915 203.432 18.097 205.634 21.518C205.634 37.3889 205.634 53.2597 205.634 69.1306C205.634 92.1871 205.634 115.244 205.634 138.3C205.634 140.456 206.103 142.471 206.993 144.346C200.011 142.752 198.558 135.723 191.388 135.207C191.013 133.567 190.872 131.833 190.872 130.052C190.966 120.305 190.919 110.792 190.826 101.419C190.685 82.674 190.263 64.4443 190.076 45.6992C189.982 35.1082 189.935 24.3766 190.17 13.317ZM187.077 0.335938C188.482 0.335938 189.873 0.335938 191.247 0.335938C196.824 0.335938 201.651 3.52261 204.041 8.20889C205.072 10.1303 205.634 12.3797 205.634 14.676C205.634 16.9566 205.634 19.2373 205.634 21.518C203.432 18.097 200.714 15.1915 197.621 14.1136C196.777 13.8324 195.84 13.645 194.809 13.5513C193.403 13.4575 191.763 13.317 190.17 13.317C190.263 8.63067 187.498 5.02222 187.077 0.335938Z" fill="url(#paint1_linear_333_2065)"/>
<path id="&#60;Mesh&#62;_2" style="mix-blend-mode:screen" fill-rule="evenodd" clip-rule="evenodd" d="M4.96746 149.172C-0.0937322 144.111 0.702934 137.316 0.702934 130.755C0.702934 122.976 0.702934 115.197 0.702934 107.418C0.702934 91.4842 0.702934 75.5508 0.702934 59.6175C0.468619 59.6643 0.187439 59.7581 -0.046875 59.8518C-0.046875 45.2618 -0.046875 30.6718 -0.046875 16.0819C-0.046875 15.6132 -0.046875 15.1446 -0.046875 14.676C-0.046875 12.1454 0.609202 9.75538 1.78077 7.69341C2.03071 7.22478 2.3119 6.78739 2.62431 6.38124C2.87425 6.00634 3.1398 5.66269 3.42097 5.35027C3.67091 5.06909 3.92085 4.80353 4.17078 4.5536C4.38948 4.30366 4.63941 4.06935 4.92059 3.85065C5.48295 3.35078 6.07654 2.9134 6.70138 2.5385C7.63863 1.9449 8.63837 1.46065 9.7006 1.08575C11.1533 0.617118 12.6998 0.335938 14.2932 0.335938C15.0742 0.335938 15.8552 0.335938 16.6363 0.335938C38.0058 0.335938 59.3909 0.335938 80.7916 0.335938C116.22 0.335938 151.648 0.335938 187.077 0.335938C188.482 0.335938 189.873 0.335938 191.247 0.335938C196.824 0.335938 201.651 3.52261 204.041 8.20889C204.197 8.52131 204.353 8.83373 204.51 9.14615C204.51 9.17739 204.51 9.19302 204.51 9.19302C204.697 9.6304 204.853 10.0678 204.978 10.5052C205.166 11.0363 205.306 11.583 205.4 12.1454C205.556 12.9889 205.634 13.8324 205.634 14.676C205.634 16.9566 205.634 19.2373 205.634 21.518C205.634 36.7015 205.634 51.8851 205.634 67.0687C205.634 67.756 205.634 68.4433 205.634 69.1306C205.634 92.1871 205.634 115.244 205.634 138.3C205.634 140.456 206.103 142.471 206.993 144.346C209.196 149.079 213.929 152.406 219.412 152.64C214.819 152.64 210.227 152.64 205.634 152.64C202.916 152.64 200.198 152.64 197.48 152.64C160.052 152.64 122.625 152.64 85.1967 152.64C62.5776 152.64 39.974 152.64 17.3861 152.64C16.3551 152.64 15.3241 152.64 14.2932 152.64C12.8404 152.64 11.3877 152.406 10.0755 151.984C8.91956 151.641 7.85732 151.172 6.88882 150.578C6.2015 150.141 5.56105 149.672 4.96746 149.172Z" fill="url(#paint2_linear_333_2065)"/>
</g>
<defs>
<linearGradient id="paint0_linear_333_2065" x1="162.474" y1="-1.53858" x2="165.66" y2="150.906" gradientUnits="userSpaceOnUse">
<stop stop-color="#A5CDFD"/>
<stop offset="1" stop-color="#C5AEFD"/>
</linearGradient>
<linearGradient id="paint1_linear_333_2065" x1="4.17078" y1="148.423" x2="16.6363" y2="0.335939" gradientUnits="userSpaceOnUse">
<stop/>
<stop offset="1" stop-color="#E0E0E0"/>
</linearGradient>
<linearGradient id="paint2_linear_333_2065" x1="4.17078" y1="148.423" x2="80.0886" y2="2.77281" gradientUnits="userSpaceOnUse">
<stop/>
<stop offset="1" stop-color="#7B76B5"/>
</linearGradient>
</defs>
</svg>
