<svg width="207" height="189" viewBox="0 0 207 189" fill="none" xmlns="http://www.w3.org/2000/svg">
<g id="Group 288">
<g id="&#60;Group&#62;" opacity="0.9">
<path id="&#60;Path&#62;" d="M206.619 35.2409C206.619 38.0527 206.619 40.8801 206.619 43.7231C206.619 82.1506 206.619 120.578 206.619 159.006C206.619 164.067 206.619 169.113 206.619 174.142C206.619 178.079 204.979 181.687 202.401 184.265C199.871 186.795 196.403 188.389 192.607 188.482C192.482 188.482 192.373 188.482 192.279 188.482C187.436 188.482 182.578 188.482 177.704 188.482C175.705 188.482 173.69 188.482 171.659 188.482C168.879 188.482 166.098 188.482 163.318 188.482C153.601 188.482 143.885 188.482 134.169 188.482C125.077 188.482 115.97 188.482 106.848 188.482C103.942 188.482 101.021 188.482 98.0845 188.482C72.5911 188.482 47.0977 188.482 21.6043 188.482C19.511 188.482 17.4022 188.482 15.2778 188.482C11.3413 188.482 7.73286 186.889 5.1554 184.265C2.53108 181.687 0.937744 178.079 0.937744 174.142C0.937744 169.113 0.937744 164.067 0.937744 159.006C0.937744 120.578 0.937744 82.1506 0.937744 43.7231C0.937744 40.8801 0.937744 38.0527 0.937744 35.2409C0.937744 33.9287 1.12518 32.6634 1.45322 31.445C2.1093 29.0081 3.42148 26.8524 5.1554 25.1185C7.73286 22.4942 11.3413 20.9008 15.2778 20.9008C17.4022 20.9008 19.511 20.9008 21.6043 20.9008C46.9727 20.9008 72.3255 20.9008 97.6627 20.9008C97.6627 18.7139 97.6627 16.527 97.6627 14.34C97.6627 13.9964 97.6783 13.6527 97.7096 13.3091C97.9907 9.74749 99.5372 6.5608 101.88 4.21766C104.505 1.59334 108.066 0 112.003 0C112.378 0 112.737 0 113.081 0C129.826 0 146.588 0 163.364 0C163.396 0 163.411 0 163.411 0C167.348 0 170.909 1.6402 173.487 4.21766C175.877 6.5608 177.423 9.74749 177.704 13.3091C177.704 13.6527 177.704 13.9964 177.704 14.34C177.704 16.527 177.704 18.7139 177.704 20.9008C182.578 20.9008 187.436 20.9008 192.279 20.9008C192.373 20.9008 192.482 20.9008 192.607 20.9008C196.403 20.9946 199.871 22.5879 202.401 25.1185C204.135 26.8524 205.447 29.0081 206.103 31.445C206.431 32.6634 206.619 33.9287 206.619 35.2409Z" fill="url(#paint0_linear_333_2166)"/>
<path id="&#60;Mesh&#62;" style="mix-blend-mode:soft-light" fill-rule="evenodd" clip-rule="evenodd" d="M106.848 188.482C103.942 188.482 101.021 188.482 98.0845 188.482C72.5911 188.482 47.0977 188.482 21.6043 188.482C19.511 188.482 17.4022 188.482 15.2778 188.482C11.3413 188.482 7.73286 186.889 5.1554 184.265C2.53108 181.687 0.937744 178.079 0.937744 174.142C0.937744 170.862 0.937744 167.566 0.937744 164.254C0.937744 162.505 0.937744 160.755 0.937744 159.006C0.937744 128.107 0.937744 97.2092 0.937744 66.311C0.937744 62.0621 0.937744 57.7975 0.937744 53.5174C0.937744 50.2682 0.937744 47.0035 0.937744 43.7231C0.937744 40.9113 0.937744 38.0839 0.937744 35.2409C0.937744 33.9287 1.12518 32.6634 1.45322 31.445C1.54695 31.1326 1.64069 30.8202 1.73442 30.5077C2.48422 28.4458 3.65579 26.6181 5.1554 25.1185C6.51443 23.7595 8.10775 22.6816 9.88854 21.9318C11.5756 21.2758 13.4033 20.9008 15.2778 20.9008C17.4022 20.9008 19.511 20.9008 21.6043 20.9008C46.9727 20.9008 72.3255 20.9008 97.6627 20.9008C97.6627 18.7139 97.6627 16.527 97.6627 14.34C97.6627 13.9964 97.6783 13.6527 97.7096 13.3091C97.9907 9.74749 99.5372 6.5608 101.88 4.21766C104.411 1.68706 107.926 0.0937257 111.768 0C112.206 0 112.643 0 113.081 0C121.141 0 129.201 0 137.262 0C145.947 0 154.648 0 163.364 0C163.396 0 163.411 0 163.411 0C167.348 0 170.909 1.6402 173.487 4.21766C173.987 4.68629 174.44 5.18616 174.846 5.71728C179.673 5.52982 184.406 6.1859 188.108 9.93493C193.685 11.9032 195.653 16.402 196.122 21.4163C198.512 22.0724 200.667 23.3846 202.401 25.1185C204.135 26.8524 205.447 29.0081 206.103 31.445C206.431 32.6634 206.619 33.9287 206.619 35.2409C206.619 35.9907 206.619 36.7405 206.619 37.4903C206.619 39.5835 206.619 41.6611 206.619 43.7231C206.619 46.4411 206.619 49.1592 206.619 51.8772C206.619 87.5867 206.619 123.296 206.619 159.006C206.619 159.912 206.619 160.802 206.619 161.677C206.619 165.832 206.619 169.987 206.619 174.142C206.619 178.079 204.979 181.687 202.401 184.265C199.871 186.795 196.403 188.389 192.607 188.482C192.482 188.482 192.373 188.482 192.279 188.482C191.435 188.482 190.607 188.482 189.795 188.482C185.765 188.482 181.735 188.482 177.704 188.482C175.705 188.482 173.69 188.482 171.659 188.482C168.879 188.482 166.098 188.482 163.318 188.482C158.1 188.482 152.867 188.482 147.619 188.482C143.151 188.482 138.668 188.482 134.169 188.482C130.076 188.482 125.999 188.482 121.938 188.482C116.908 188.482 111.878 188.482 106.848 188.482ZM123.109 163.598C123.109 165.754 123.109 167.957 123.109 170.206C123.156 167.628 123.156 165.332 123.109 163.598ZM123.109 170.206C123.062 176.532 122.828 184.405 121.938 188.482C123.203 182.578 123.156 176.345 123.109 170.206ZM175.924 7.35748C176.908 9.13827 177.517 11.1534 177.704 13.3091C177.704 13.6527 177.704 13.9964 177.704 14.34C177.704 16.527 177.704 18.7139 177.704 20.9008C182.328 20.9008 186.936 20.9008 191.529 20.9008C191.06 17.1049 190.873 12.8404 188.108 9.93493C184.218 8.57591 179.954 7.96669 175.924 7.35748Z" fill="url(#paint1_linear_333_2166)"/>
<path id="&#60;Mesh&#62;_2" opacity="0.3" fill-rule="evenodd" clip-rule="evenodd" d="M106.848 188.482C103.942 188.482 101.021 188.482 98.0845 188.482C72.5911 188.482 47.0977 188.482 21.6043 188.482C19.511 188.482 17.4022 188.482 15.2778 188.482C11.3413 188.482 7.73286 186.889 5.1554 184.265C2.53108 181.687 0.937744 178.079 0.937744 174.142C0.937744 170.862 0.937744 167.566 0.937744 164.254C0.937744 162.505 0.937744 160.755 0.937744 159.006C0.937744 128.107 0.937744 97.2092 0.937744 66.311C0.937744 62.0621 0.937744 57.7975 0.937744 53.5174C0.937744 50.2682 0.937744 47.0035 0.937744 43.7231C0.937744 40.9113 0.937744 38.0839 0.937744 35.2409C0.937744 33.9287 1.12518 32.6634 1.45322 31.445C1.54695 31.1326 1.64069 30.8202 1.73442 30.5077C2.48422 28.4458 3.65579 26.6181 5.1554 25.1185C6.51443 23.7595 8.10775 22.6816 9.88854 21.9318C11.5756 21.2758 13.4033 20.9008 15.2778 20.9008C17.4022 20.9008 19.511 20.9008 21.6043 20.9008C46.9727 20.9008 72.3255 20.9008 97.6627 20.9008C97.6627 18.7139 97.6627 16.527 97.6627 14.34C97.6627 13.9964 97.6783 13.6527 97.7096 13.3091C97.9907 9.74749 99.5372 6.5608 101.88 4.21766C104.411 1.68706 107.926 0.0937257 111.768 0C112.206 0 112.643 0 113.081 0C121.141 0 129.201 0 137.262 0C145.947 0 154.648 0 163.364 0C163.396 0 163.411 0 163.411 0C167.348 0 170.909 1.6402 173.487 4.21766C173.987 4.68629 174.44 5.18616 174.846 5.71728C179.673 5.52982 184.406 6.1859 188.108 9.93493C193.685 11.9032 195.653 16.402 196.122 21.4163C198.512 22.0724 200.667 23.3846 202.401 25.1185C204.135 26.8524 205.447 29.0081 206.103 31.445C206.431 32.6634 206.619 33.9287 206.619 35.2409C206.619 35.9907 206.619 36.7405 206.619 37.4903C206.619 39.5835 206.619 41.6611 206.619 43.7231C206.619 46.4411 206.619 49.1592 206.619 51.8772C206.619 87.5867 206.619 123.296 206.619 159.006C206.619 159.912 206.619 160.802 206.619 161.677C206.619 165.832 206.619 169.987 206.619 174.142C206.619 178.079 204.979 181.687 202.401 184.265C199.871 186.795 196.403 188.389 192.607 188.482C192.482 188.482 192.373 188.482 192.279 188.482C191.435 188.482 190.607 188.482 189.795 188.482C185.765 188.482 181.735 188.482 177.704 188.482C175.705 188.482 173.69 188.482 171.659 188.482C168.879 188.482 166.098 188.482 163.318 188.482C158.1 188.482 152.867 188.482 147.619 188.482C143.151 188.482 138.668 188.482 134.169 188.482C130.076 188.482 125.999 188.482 121.938 188.482C116.908 188.482 111.878 188.482 106.848 188.482ZM123.109 163.598C123.109 165.754 123.109 167.957 123.109 170.206C123.156 167.628 123.156 165.332 123.109 163.598ZM123.109 170.206C123.062 176.532 122.828 184.405 121.938 188.482C123.203 182.578 123.156 176.345 123.109 170.206ZM175.924 7.35748C176.908 9.13827 177.517 11.1534 177.704 13.3091C177.704 13.6527 177.704 13.9964 177.704 14.34C177.704 16.527 177.704 18.7139 177.704 20.9008C182.328 20.9008 186.936 20.9008 191.529 20.9008C191.06 17.1049 190.873 12.8404 188.108 9.93493C184.218 8.57591 179.954 7.96669 175.924 7.35748Z" fill="url(#paint2_linear_333_2166)"/>
</g>
<g id="&#60;Group&#62;_2" opacity="0.8">
<g id="&#60;Group&#62;_3" style="mix-blend-mode:multiply" opacity="0.5">
<path id="&#60;Path&#62;_2" opacity="0.1" d="M183.047 22.6797C193.263 22.6797 201.558 59.6545 201.558 105.252C201.558 150.85 193.263 187.824 183.047 187.824C172.831 187.824 164.536 150.85 164.536 105.252C164.536 59.6545 172.831 22.6797 183.047 22.6797Z" fill="#F2F1F9"/>
<path id="&#60;Path&#62;_3" opacity="0.1" d="M182.906 23.8047C192.888 23.8047 200.948 60.4983 200.948 105.768C200.948 151.037 192.888 187.731 182.906 187.731C172.924 187.731 164.864 151.037 164.864 105.768C164.864 60.4983 172.924 23.8047 182.906 23.8047Z" fill="#EDECF7"/>
<path id="&#60;Path&#62;_4" opacity="0.1" d="M182.765 24.9746C192.466 24.9746 200.339 61.3871 200.339 106.329C200.339 151.223 192.466 187.636 182.765 187.636C173.018 187.636 165.145 151.223 165.145 106.329C165.145 61.3871 173.018 24.9746 182.765 24.9746Z" fill="#E9E8F5"/>
<path id="&#60;Path&#62;_5" opacity="0.1" d="M182.578 26.0977C192.044 26.0977 199.683 62.2758 199.683 106.842C199.683 151.409 192.044 187.54 182.578 187.54C173.159 187.54 165.473 151.409 165.473 106.842C165.473 62.2758 173.159 26.0977 182.578 26.0977Z" fill="#E4E3F3"/>
<path id="&#60;Path&#62;_6" opacity="0.2" d="M182.437 27.2695C191.622 27.2695 199.074 63.1196 199.074 107.358C199.074 151.597 191.622 187.447 182.437 187.447C173.252 187.447 165.801 151.597 165.801 107.358C165.801 63.1196 173.252 27.2695 182.437 27.2695Z" fill="#E0DEF1"/>
<path id="&#60;Path&#62;_7" opacity="0.2" d="M182.297 28.3984C191.201 28.3984 198.464 64.0142 198.464 107.878C198.464 151.788 191.201 187.357 182.297 187.357C173.346 187.357 166.129 151.788 166.129 107.878C166.129 64.0142 173.346 28.3984 182.297 28.3984Z" fill="#DBDAEF"/>
<path id="&#60;Path&#62;_8" opacity="0.2" d="M182.109 29.5684C190.779 29.5684 197.855 64.8561 197.855 108.439C197.855 151.974 190.779 187.262 182.109 187.262C173.44 187.262 166.41 151.974 166.41 108.439C166.41 64.8561 173.44 29.5684 182.109 29.5684Z" fill="#D7D5ED"/>
<path id="&#60;Path&#62;_9" opacity="0.2" d="M181.969 30.6934C190.404 30.6934 197.199 65.7468 197.199 108.954C197.199 152.162 190.404 187.168 181.969 187.168C173.58 187.168 166.738 152.162 166.738 108.954C166.738 65.7468 173.58 30.6934 181.969 30.6934Z" fill="#D3D0EB"/>
<path id="&#60;Path&#62;_10" opacity="0.3" d="M181.828 31.8633C189.982 31.8633 196.59 66.5887 196.59 109.468C196.59 152.348 189.982 187.073 181.828 187.073C173.674 187.073 167.066 152.348 167.066 109.468C167.066 66.5887 173.674 31.8633 181.828 31.8633Z" fill="#CECBE9"/>
<path id="&#60;Path&#62;_11" opacity="0.3" d="M181.688 32.9902C189.561 32.9902 195.981 67.4813 195.981 109.986C195.981 152.537 189.561 186.982 181.688 186.982C173.768 186.982 167.348 152.537 167.348 109.986C167.348 67.4813 173.768 32.9902 181.688 32.9902Z" fill="#CAC7E7"/>
<path id="&#60;Path&#62;_12" opacity="0.3" d="M181.5 34.1602C189.139 34.1602 195.325 68.3232 195.325 110.547C195.325 152.723 189.139 186.933 181.5 186.933C173.862 186.933 167.676 152.723 167.676 110.547C167.676 68.3232 173.862 34.1602 181.5 34.1602Z" fill="#C5C2E5"/>
<path id="&#60;Path&#62;_13" opacity="0.3" d="M181.359 35.2852C188.717 35.2852 194.715 69.2139 194.715 111.062C194.715 152.911 188.717 186.84 181.359 186.84C173.955 186.84 168.004 152.911 168.004 111.062C168.004 69.2139 173.955 35.2852 181.359 35.2852Z" fill="#C1BDE3"/>
<path id="&#60;Path&#62;_14" opacity="0.4" d="M181.219 36.4082C188.342 36.4082 194.106 70.0558 194.106 111.576C194.106 153.097 188.342 186.744 181.219 186.744C174.096 186.744 168.332 153.097 168.332 111.576C168.332 70.0558 174.096 36.4082 181.219 36.4082Z" fill="#BCB9E1"/>
<path id="&#60;Path&#62;_15" opacity="0.4" d="M181.031 37.584C187.92 37.584 193.45 70.9503 193.45 112.096C193.45 153.288 187.92 186.655 181.031 186.655C174.189 186.655 168.613 153.288 168.613 112.096C168.613 70.9503 174.189 37.584 181.031 37.584Z" fill="#B8B4DF"/>
<path id="&#60;Path&#62;_16" opacity="0.4" d="M180.891 38.7051C187.499 38.7051 192.841 71.7903 192.841 112.655C192.841 153.472 187.499 186.557 180.891 186.557C174.283 186.557 168.941 153.472 168.941 112.655C168.941 71.7903 174.283 38.7051 180.891 38.7051Z" fill="#B4AFDD"/>
<path id="&#60;Path&#62;_17" opacity="0.4" d="M180.75 39.8789C187.077 39.8789 192.232 72.6829 192.232 113.172C192.232 153.662 187.077 186.466 180.75 186.466C174.377 186.466 169.269 153.662 169.269 113.172C169.269 72.6829 174.377 39.8789 180.75 39.8789Z" fill="#AFABDB"/>
<path id="&#60;Path&#62;_18" opacity="0.5" d="M180.563 41.002C186.655 41.002 191.623 73.5717 191.623 113.686C191.623 153.848 186.655 186.371 180.563 186.371C174.518 186.371 169.55 153.848 169.55 113.686C169.55 73.5717 174.518 41.002 180.563 41.002Z" fill="#ABA6D9"/>
<path id="&#60;Path&#62;_19" opacity="0.5" d="M180.422 42.1758C186.233 42.1758 190.966 74.4174 190.966 114.204C190.966 153.991 186.233 186.279 180.422 186.279C174.611 186.279 169.878 153.991 169.878 114.204C169.878 74.4174 174.611 42.1758 180.422 42.1758Z" fill="#A6A1D7"/>
<path id="&#60;Path&#62;_20" opacity="0.5" d="M180.282 43.2969C185.858 43.2969 190.357 75.3042 190.357 114.763C190.357 154.174 185.858 186.182 180.282 186.182C174.705 186.182 170.206 154.174 170.206 114.763C170.206 75.3042 174.705 43.2969 180.282 43.2969Z" fill="#A29DD6"/>
<path id="&#60;Path&#62;_21" opacity="0.5" d="M180.141 44.4727C185.437 44.4727 189.748 76.1519 189.748 115.282C189.748 154.366 185.437 186.092 180.141 186.092C174.799 186.092 170.487 154.366 170.487 115.282C170.487 76.1519 174.799 44.4727 180.141 44.4727Z" fill="#9D98D4"/>
<path id="&#60;Path&#62;_22" opacity="0.6" d="M179.954 45.5918C185.015 45.5918 189.092 77.0368 189.092 115.792C189.092 154.548 185.015 185.993 179.954 185.993C174.939 185.993 170.815 154.548 170.815 115.792C170.815 77.0368 174.939 45.5918 179.954 45.5918Z" fill="#9993D2"/>
<path id="&#60;Path&#62;_23" opacity="0.6" d="M179.813 46.7676C184.593 46.7676 188.483 77.8845 188.483 116.312C188.483 154.74 184.593 185.903 179.813 185.903C175.033 185.903 171.143 154.74 171.143 116.312C171.143 77.8845 175.033 46.7676 179.813 46.7676Z" fill="#948FD0"/>
<path id="&#60;Path&#62;_24" opacity="0.6" d="M179.673 47.8906C184.171 47.8906 187.874 78.7733 187.874 116.873C187.874 154.925 184.171 185.808 179.673 185.808C175.127 185.808 171.472 154.925 171.472 116.873C171.472 78.7733 175.127 47.8906 179.673 47.8906Z" fill="#908ACE"/>
<path id="&#60;Path&#62;_25" opacity="0.6" d="M179.485 49.0156C183.796 49.0156 187.217 79.6171 187.217 117.389C187.217 155.113 183.796 185.715 179.485 185.715C175.221 185.715 171.753 155.113 171.753 117.389C171.753 79.6171 175.221 49.0156 179.485 49.0156Z" fill="#8C85CC"/>
<path id="&#60;Path&#62;_26" opacity="0.7" d="M179.344 50.1855C183.375 50.1855 186.608 80.5058 186.608 117.902C186.608 155.299 183.375 185.619 179.344 185.619C175.314 185.619 172.081 155.299 172.081 117.902C172.081 80.5058 175.314 50.1855 179.344 50.1855Z" fill="#8781CA"/>
<path id="&#60;Path&#62;_27" opacity="0.7" d="M179.204 51.3125C182.953 51.3125 185.999 81.3516 185.999 118.42C185.999 155.489 182.953 185.528 179.204 185.528C175.455 185.528 172.409 155.489 172.409 118.42C172.409 81.3516 175.455 51.3125 179.204 51.3125Z" fill="#837CC8"/>
<path id="&#60;Path&#62;_28" opacity="0.7" d="M179.016 52.4844C182.531 52.4844 185.39 82.2423 185.39 118.983C185.39 155.676 182.531 185.434 179.016 185.434C175.548 185.434 172.69 155.676 172.69 118.983C172.69 82.2423 175.548 52.4844 179.016 52.4844Z" fill="#7E77C6"/>
<path id="&#60;Path&#62;_29" opacity="0.7" d="M178.876 53.6074C182.109 53.6074 184.734 83.131 184.734 119.497C184.734 155.862 182.109 185.339 178.876 185.339C175.642 185.339 173.018 155.862 173.018 119.497C173.018 83.131 175.642 53.6074 178.876 53.6074Z" fill="#7A73C4"/>
<path id="&#60;Path&#62;_30" opacity="0.8" d="M178.735 54.7832C181.688 54.7832 184.125 83.9788 184.125 120.016C184.125 156.054 181.688 185.249 178.735 185.249C175.736 185.249 173.346 156.054 173.346 120.016C173.346 83.9788 175.736 54.7832 178.735 54.7832Z" fill="#756EC2"/>
<path id="&#60;Path&#62;_31" opacity="0.8" d="M178.595 55.9043C181.313 55.9043 183.515 84.8655 183.515 120.528C183.515 156.238 181.313 185.152 178.595 185.152C175.877 185.152 173.674 156.238 173.674 120.528C173.674 84.8655 175.877 55.9043 178.595 55.9043Z" fill="#7169C0"/>
<path id="&#60;Path&#62;_32" opacity="0.8" d="M178.407 57.0762C180.891 57.0762 182.859 85.7094 182.859 121.091C182.859 156.425 180.891 185.059 178.407 185.059C175.97 185.059 173.955 156.425 173.955 121.091C173.955 85.7094 175.97 57.0762 178.407 57.0762Z" fill="#6D64BE"/>
<path id="&#60;Path&#62;_33" opacity="0.8" d="M178.267 58.1992C180.469 58.1992 182.25 86.5981 182.25 121.605C182.25 156.611 180.469 185.01 178.267 185.01C176.064 185.01 174.283 156.611 174.283 121.605C174.283 86.5981 176.064 58.1992 178.267 58.1992Z" fill="#6860BC"/>
<path id="&#60;Path&#62;_34" opacity="0.9" d="M178.126 59.3262C180.047 59.3262 181.641 87.4439 181.641 122.122C181.641 156.801 180.047 184.919 178.126 184.919C176.158 184.919 174.611 156.801 174.611 122.122C174.611 87.4439 176.158 59.3262 178.126 59.3262Z" fill="#645BBA"/>
<path id="&#60;Path&#62;_35" opacity="0.9" d="M177.939 60.4961C179.626 60.4961 180.985 88.3326 180.985 122.636C180.985 156.987 179.626 184.823 177.939 184.823C176.252 184.823 174.893 156.987 174.893 122.636C174.893 88.3326 176.252 60.4961 177.939 60.4961Z" fill="#5F56B8"/>
<path id="&#60;Path&#62;_36" opacity="0.9" d="M177.798 61.623C179.204 61.623 180.375 89.1784 180.375 123.201C180.375 157.176 179.204 184.732 177.798 184.732C176.392 184.732 175.22 157.176 175.22 123.201C175.22 89.1784 176.392 61.623 177.798 61.623Z" fill="#5B52B6"/>
<path id="&#60;Path&#62;_37" opacity="0.9" d="M177.657 62.793C178.829 62.793 179.766 90.0672 179.766 123.715C179.766 157.362 178.829 184.636 177.657 184.636C176.486 184.636 175.549 157.362 175.549 123.715C175.549 90.0672 176.486 62.793 177.657 62.793Z" fill="#564DB4"/>
<path id="&#60;Path&#62;_38" d="M177.47 63.9199C178.407 63.9199 179.157 90.9129 179.157 124.232C179.157 157.552 178.407 184.545 177.517 184.545C176.58 184.545 175.83 157.552 175.83 124.232C175.83 90.9129 176.58 63.9199 177.47 63.9199Z" fill="#5248B2"/>
<path id="&#60;Path&#62;_39" d="M177.329 65.0898C177.985 65.0898 178.501 91.8017 178.501 124.746C178.501 157.738 177.985 184.45 177.329 184.45C176.673 184.45 176.158 157.738 176.158 124.746C176.158 91.8017 176.673 65.0898 177.329 65.0898Z" fill="#4D44B0"/>
<path id="&#60;Path&#62;_40" d="M177.189 66.2148C177.564 66.2148 177.892 92.6455 177.892 125.309C177.892 157.925 177.564 184.356 177.189 184.356C176.814 184.356 176.486 157.925 176.486 125.309C176.486 92.6455 176.814 66.2148 177.189 66.2148Z" fill="#493FAE"/>
</g>
</g>
</g>
<defs>
<linearGradient id="paint0_linear_333_2166" x1="182.672" y1="-30.3203" x2="235.486" y2="183.796" gradientUnits="userSpaceOnUse">
<stop stop-color="#A5CDFD"/>
<stop offset="1" stop-color="#C5AEFD"/>
</linearGradient>
<linearGradient id="paint1_linear_333_2166" x1="9.88855" y1="21.9318" x2="206.619" y2="161.677" gradientUnits="userSpaceOnUse">
<stop stop-color="#D4D4D4"/>
<stop offset="1" stop-color="#3D3D3D"/>
</linearGradient>
<linearGradient id="paint2_linear_333_2166" x1="9.88855" y1="21.9318" x2="206.619" y2="161.677" gradientUnits="userSpaceOnUse">
<stop stop-color="#D4D4D4"/>
<stop offset="1" stop-color="#3D3D3D"/>
</linearGradient>
</defs>
</svg>
