<svg width="309" height="307" viewBox="0 0 309 307" fill="none" xmlns="http://www.w3.org/2000/svg">
<path d="M242.846 43.0293L203.772 76.508C197.815 69.5672 190.439 64.1794 181.66 60.3445C172.873 56.5183 163.098 54.5987 152.323 54.5987C141.547 54.5987 130.09 56.7512 119.401 61.052C108.703 65.3527 99.0011 71.1461 90.296 78.4319C81.5866 85.7178 74.2059 94.3193 68.1451 104.237C62.0887 114.154 58.0683 124.727 56.0883 135.951C54.1083 147.179 54.3973 157.752 56.9597 167.67C59.522 177.587 63.8573 186.244 69.9784 193.651C76.091 201.058 83.7392 206.911 92.9231 211.212C93.4795 211.475 94.0403 211.725 94.6054 211.971C93.2466 208.766 92.0991 205.419 91.189 201.899C88.6266 191.982 88.3376 181.409 90.3176 170.18C92.2976 158.956 96.318 148.383 102.374 138.466C108.435 128.549 115.816 119.947 124.525 112.661C133.23 105.375 142.932 99.5777 153.63 95.2812C164.319 90.9805 175.298 88.8279 186.552 88.8279C197.807 88.8279 207.103 90.7475 215.89 94.5738C224.668 98.4044 232.044 103.797 238.002 110.737L283.274 71.9484C273.128 60.2194 260.627 50.9967 245.771 44.2932C244.804 43.8575 243.829 43.4391 242.85 43.0293H242.846Z" fill="url(#paint0_linear_47_484)"/>
<path d="M203.772 76.5076L237.997 110.737L283.27 71.948L249.041 37.7188L203.772 76.5076Z" fill="url(#paint1_linear_47_484)"/>
<path d="M129.163 184.656L163.5 218.484H228.654L194.636 184.734L129.163 184.656Z" fill="url(#paint2_linear_47_484)"/>
<path d="M162.288 0.00862926C180.483 0.00862926 197.013 3.36469 211.874 10.0639C226.73 16.7717 239.235 25.9901 249.377 37.7191L204.105 76.5079C198.143 69.5672 190.771 64.1794 181.993 60.3445C173.206 56.5182 163.431 54.5986 152.655 54.5986C141.879 54.5986 130.422 56.7511 119.733 61.0519C109.035 65.3527 99.3333 71.146 90.6282 78.4318C81.9188 85.7177 74.5381 94.3192 68.4773 104.236C62.4209 114.154 58.4005 124.727 56.4205 135.951C54.4405 147.179 54.7295 157.752 57.2919 167.67C59.8542 177.587 64.1895 186.244 70.3106 193.651C76.4232 201.058 84.0714 206.911 93.2552 211.212C102.431 215.509 112.645 217.661 123.904 217.661C137.311 217.661 150.153 214.758 162.434 208.956C174.711 203.154 185.556 195.282 194.972 185.334H129.603L139.231 130.74H274.996C274.828 131.698 274.724 132.599 274.703 133.432C274.673 134.273 274.573 135.17 274.405 136.123C271.114 154.802 264.415 172.402 254.32 188.923C244.222 205.445 231.919 219.874 217.417 232.203C202.905 244.54 186.763 254.293 168.974 261.475C151.184 268.658 132.954 272.251 114.276 272.251C95.5976 272.251 78.6318 268.658 63.3785 261.475C48.1252 254.293 35.4171 244.54 25.2583 232.203C15.0952 219.874 7.88697 205.445 3.6164 188.923C-0.654172 172.402 -1.14163 154.802 2.14973 136.123C5.44109 117.445 12.136 99.8494 22.2344 83.3279C32.3327 66.8064 44.6268 52.3814 59.1381 40.0485C73.6408 27.7199 89.7913 17.958 107.581 10.7756C125.371 3.59332 143.601 0 162.279 0L162.288 0.00862926Z" fill="white"/>
<path d="M274.66 130.747C274.491 131.709 274.388 132.606 274.366 133.439C274.336 134.28 274.237 135.177 274.069 136.13C270.777 154.809 264.082 172.409 253.984 188.93C243.886 205.452 231.583 219.881 217.08 232.21C202.569 244.547 186.427 254.3 168.637 261.482C150.848 268.665 132.618 272.258 113.939 272.258C95.2611 272.258 78.2952 268.665 63.042 261.482C51.9514 256.259 42.2111 249.672 33.8166 241.726L64.2369 272.159C65.3929 273.371 65.7639 274.557 66.9804 275.713L67.8733 277.422V277.314C76.5051 284.656 86.0038 290.785 96.456 295.707C111.709 302.89 129.085 306.483 147.759 306.483C166.433 306.483 184.87 302.89 202.659 295.707C220.449 288.525 236.695 278.772 251.202 266.435C265.704 254.106 278.059 239.677 288.157 223.155C298.251 206.634 304.972 189.034 308.268 170.355C308.436 169.402 308.544 168.505 308.578 167.664C308.6 166.827 308.712 165.93 308.88 164.968L274.655 130.738L274.66 130.747Z" fill="url(#paint3_linear_47_484)"/>
<path d="M28.0578 235.752H27.9241L29.7186 237.546C29.1578 236.955 28.6057 236.472 28.0622 235.752H28.0578Z" fill="url(#paint4_linear_47_484)"/>
<defs>
<linearGradient id="paint0_linear_47_484" x1="54.7942" y1="127.5" x2="283.27" y2="127.5" gradientUnits="userSpaceOnUse">
<stop stop-color="#91C5C8"/>
<stop offset="1" stop-color="#787FAF"/>
</linearGradient>
<linearGradient id="paint1_linear_47_484" x1="203.772" y1="74.23" x2="283.27" y2="74.23" gradientUnits="userSpaceOnUse">
<stop stop-color="#A9CACE"/>
<stop offset="0.07" stop-color="#B3CBD0"/>
<stop offset="0.29" stop-color="#CDCFD5"/>
<stop offset="0.51" stop-color="#DFD2D9"/>
<stop offset="0.74" stop-color="#EAD4DB"/>
<stop offset="1" stop-color="#EED5DC"/>
</linearGradient>
<linearGradient id="paint2_linear_47_484" x1="129.163" y1="201.57" x2="228.654" y2="201.57" gradientUnits="userSpaceOnUse">
<stop stop-color="#91C5C8"/>
<stop offset="1" stop-color="#9BBCE3"/>
</linearGradient>
<linearGradient id="paint3_linear_47_484" x1="33.8209" y1="218.617" x2="308.885" y2="218.617" gradientUnits="userSpaceOnUse">
<stop stop-color="#A9CACE"/>
<stop offset="0.07" stop-color="#B3CBD0"/>
<stop offset="0.29" stop-color="#CDCFD5"/>
<stop offset="0.51" stop-color="#DFD2D9"/>
<stop offset="0.74" stop-color="#EAD4DB"/>
<stop offset="1" stop-color="#EED5DC"/>
</linearGradient>
<linearGradient id="paint4_linear_47_484" x1="27.9241" y1="236.649" x2="29.7143" y2="236.649" gradientUnits="userSpaceOnUse">
<stop stop-color="#A9CACE"/>
<stop offset="0.07" stop-color="#B3CBD0"/>
<stop offset="0.29" stop-color="#CDCFD5"/>
<stop offset="0.51" stop-color="#DFD2D9"/>
<stop offset="0.74" stop-color="#EAD4DB"/>
<stop offset="1" stop-color="#EED5DC"/>
</linearGradient>
</defs>
</svg>
