<svg width="32" height="33" viewBox="0 0 32 33" fill="none" xmlns="http://www.w3.org/2000/svg">
<g id="Google__G__Logo 1" clip-path="url(#clip0_332_631)">
<path id="Vector" d="M32 16.6978C32 15.5882 31.9101 14.4725 31.7181 13.3809H16.3209V19.6669H25.1382C24.7723 21.6943 23.5966 23.4877 21.8752 24.6273V28.7061H27.1355C30.2246 25.863 32 21.6643 32 16.6978Z" fill="#4285F4"/>
<path id="Vector_2" d="M16.3208 32.647C20.7235 32.647 24.4363 31.2015 27.1415 28.7063L21.8811 24.6276C20.4176 25.6232 18.5282 26.1871 16.3268 26.1871C12.0682 26.1871 8.4573 23.314 7.1617 19.4512H1.7334V23.6559C4.50453 29.1681 10.1488 32.647 16.3208 32.647Z" fill="#34A853"/>
<path id="Vector_3" d="M7.15571 19.4528C6.47192 17.4254 6.47192 15.2301 7.15571 13.2027V8.99805H1.73341C-0.581871 13.6106 -0.581871 19.0449 1.73341 23.6575L7.15571 19.4528Z" fill="#FFDC60"/>
<path id="Vector_4" d="M16.3208 6.45913C18.6481 6.42314 20.8974 7.29887 22.5829 8.90636L27.2434 4.24582C24.2924 1.47469 20.3756 -0.0488381 16.3208 -0.000853077C10.1488 -0.000853077 4.50453 3.47806 1.7334 8.99634L7.1557 13.201C8.4453 9.33223 12.0622 6.45913 16.3208 6.45913Z" fill="#EA4335"/>
</g>
<defs>
<clipPath id="clip0_332_631">
<rect width="32" height="32.6478" fill="white"/>
</clipPath>
</defs>
</svg>
