<svg width="299" height="31" viewBox="0 0 299 31" fill="none" xmlns="http://www.w3.org/2000/svg">
<path d="M15.5768 19.1942C17.4901 18.6423 18.9986 17.6857 20.0289 16.2875C21.0591 14.8894 21.611 13.1969 21.611 11.1364C21.611 8.45048 20.6912 6.31646 18.8515 4.77112C17.0118 3.22579 14.473 2.45312 11.2352 2.45312H2V4.14563H11.2352C13.9579 4.14563 16.0552 4.77112 17.5269 5.98531C18.9619 7.1995 19.6977 8.9288 19.6977 11.1364C19.6977 13.3808 18.9619 15.1101 17.5269 16.3243C16.0552 17.5385 13.9579 18.1272 11.2352 18.1272H2V28.2087H3.87647V19.7829H11.2352C11.9711 19.7829 12.8173 19.7461 13.7372 19.5989L19.8817 28.2087H22.0157L15.5768 19.1942Z" fill="#292930" stroke="#3D3D3D" stroke-width="4" stroke-miterlimit="2"/>
<path d="M50.2948 14.3007H33.6273V15.9564H50.2948V14.3007ZM50.2948 2.45312H33.6273V4.14563H50.2948V2.45312ZM33.6273 26.5161V28.2087H50.2948V26.5161H33.6273Z" fill="#292930" stroke="#3D3D3D" stroke-width="4" stroke-miterlimit="2"/>
<path d="M64.7481 27.4364C66.4406 28.0986 68.2435 28.393 70.1568 28.393C72.1804 28.393 73.9097 28.0986 75.3079 27.4732C76.706 26.8845 77.7363 26.0382 78.3986 25.008C79.0608 23.9778 79.4288 22.8372 79.4288 21.5862C79.4288 20.0776 79.024 18.8634 78.2146 17.9804C77.4051 17.0974 76.4485 16.3983 75.3447 15.9568C74.2041 15.5152 72.6955 15.0737 70.8191 14.5954C69.1266 14.1907 67.7652 13.7859 66.8086 13.418C65.8151 13.0501 65.0057 12.5349 64.3434 11.8359C63.6811 11.1736 63.35 10.2537 63.35 9.07635C63.35 7.56781 63.9387 6.31683 65.1897 5.36019C66.4038 4.40356 68.2067 3.92524 70.5983 3.92524C71.7757 3.92524 72.9899 4.10921 74.2409 4.47715C75.4919 4.84508 76.6325 5.39699 77.6627 6.09607L78.3618 4.58753C77.3315 3.88845 76.1541 3.33655 74.7928 2.89502C73.3946 2.49029 71.9965 2.26953 70.5983 2.26953C68.5379 2.26953 66.8454 2.60067 65.484 3.18937C64.1226 3.81486 63.1292 4.66112 62.4669 5.69134C61.8046 6.72156 61.4735 7.86216 61.4735 9.11314C61.4735 10.6585 61.8414 11.9095 62.6509 12.8293C63.4603 13.7491 64.417 14.4114 65.5576 14.8529C66.6982 15.2945 68.2067 15.7728 70.12 16.2143C71.7757 16.619 73.1003 16.987 74.0937 17.3549C75.0503 17.7228 75.8966 18.2748 76.5589 18.937C77.2212 19.6361 77.5523 20.556 77.5523 21.6966C77.5523 23.2051 76.9268 24.4193 75.6758 25.3391C74.4248 26.2958 72.5484 26.7373 70.12 26.7373C68.4275 26.7373 66.8086 26.4429 65.2632 25.8542C63.7179 25.2655 62.5037 24.4561 61.6207 23.4994L60.7744 24.8976C61.731 25.9278 63.0556 26.7741 64.7481 27.4364Z" fill="#292930" stroke="#3D3D3D" stroke-width="4" stroke-miterlimit="2"/>
<path d="M95.4893 4.14563V28.2087H97.3658V4.14563H106.638V2.45312H86.2173V4.14563H95.4893Z" fill="#292930" stroke="#3D3D3D" stroke-width="4" stroke-miterlimit="2"/>
<path d="M198.021 19.1942C199.934 18.6423 201.443 17.6857 202.473 16.2875C203.503 14.8894 204.055 13.1969 204.055 11.1364C204.055 8.45048 203.135 6.31646 201.295 4.77112C199.456 3.22579 196.917 2.45312 193.679 2.45312H184.444V4.14563H193.679C196.402 4.14563 198.499 4.77112 199.971 5.98531C201.406 7.1995 202.142 8.9288 202.142 11.1364C202.142 13.3808 201.406 15.1101 199.971 16.3243C198.499 17.5385 196.402 18.1272 193.679 18.1272H184.444V28.2087H186.32V19.7829H193.679C194.415 19.7829 195.261 19.7461 196.181 19.5989L202.326 28.2087H204.46L198.021 19.1942Z" fill="#292930" stroke="#3D3D3D" stroke-width="4" stroke-miterlimit="2"/>
<path d="M225.491 2.45312H223.614L211.766 28.2087H213.79L224.534 4.51357L235.314 28.2087H237.338L225.491 2.45312Z" fill="#292930" stroke="#3D3D3D" stroke-width="4" stroke-miterlimit="2"/>
<path d="M265.162 15.4416V24.3089C263.211 25.891 260.783 26.6637 257.84 26.6637C255.632 26.6637 253.645 26.1854 251.879 25.192C250.113 24.1985 248.715 22.8372 247.685 21.1079C246.654 19.3786 246.176 17.4653 246.176 15.3313C246.176 13.1972 246.654 11.284 247.685 9.55466C248.678 7.82537 250.076 6.464 251.842 5.47058C253.608 4.51394 255.632 3.99883 257.84 3.99883C259.459 3.99883 260.93 4.25638 262.255 4.7347C263.579 5.21302 264.794 5.98568 265.897 7.0527L267.075 5.80172C265.934 4.66112 264.573 3.77807 262.991 3.18937C261.409 2.60067 259.679 2.26953 257.803 2.26953C255.227 2.26953 252.909 2.85823 250.849 3.96204C248.788 5.10264 247.206 6.64797 246.029 8.63482C244.851 10.6217 244.3 12.8661 244.3 15.3313C244.3 17.8332 244.851 20.0408 246.029 22.0277C247.206 24.0146 248.788 25.5967 250.849 26.7005C252.909 27.8411 255.19 28.393 257.766 28.393C259.532 28.393 261.225 28.1354 262.844 27.5467C264.462 26.9948 265.824 26.1854 266.964 25.0816V15.4416H265.162Z" fill="#292930" stroke="#3D3D3D" stroke-width="4" stroke-miterlimit="2"/>
<path d="M297 14.3007H280.332V15.9564H297V14.3007ZM297 2.45312H280.332V4.14563H297V2.45312ZM280.332 26.5161V28.2087H297V26.5161H280.332Z" fill="#292930" stroke="#3D3D3D" stroke-width="4" stroke-miterlimit="2"/>
</svg>
