<svg width="299" height="73" viewBox="0 0 299 73" fill="none" xmlns="http://www.w3.org/2000/svg">
<g filter="url(#filter0_d_333_1903)">
<path d="M171.409 31.4256C171.409 39.07 168.385 46.0089 163.469 51.1095C162.785 51.8194 162.065 52.4926 161.312 53.1272L159.262 50.8977L150.874 41.7757L148.816 39.5383C149.622 38.9632 150.338 38.2717 150.941 37.4865C152.231 35.8076 152.998 33.7059 152.998 31.4256C152.998 25.9249 148.539 21.4667 143.039 21.4667H116.466C116.083 22.4874 115.757 23.5361 115.493 24.6092C114.954 26.7924 114.668 29.0753 114.668 31.4256C114.668 47.0943 127.37 59.7956 143.039 59.7956C144.083 59.7956 145.114 59.7396 146.13 59.6284C148.807 59.3387 151.373 58.676 153.774 57.6939L149.229 62.2404H149.228L147.192 64.2774L146.814 62.6247C145.576 62.7735 144.316 62.8497 143.039 62.8497C125.683 62.8497 111.615 48.7802 111.615 31.4256C111.615 29.0849 111.871 26.8037 112.357 24.6092C112.593 23.5404 112.883 22.4918 113.225 21.4667C113.57 20.4338 113.967 19.4254 114.412 18.4442H143.039C150.209 18.4442 156.02 24.2556 156.02 31.4256C156.02 34.5882 154.89 37.4856 153.011 39.737L161.417 48.8783C165.734 44.3335 168.384 38.1885 168.384 31.4256C168.384 17.4279 157.036 6.07989 143.038 6.07989C137.982 6.07989 133.273 7.56098 129.319 10.1109L130.619 11.6909L126.418 12.2896L121.469 12.9951C123.184 10.9888 125.175 9.22414 127.383 7.76143C131.87 4.787 137.251 3.05469 143.038 3.05469C158.707 3.05469 171.409 15.756 171.409 31.4256Z" fill="#A21441"/>
<path d="M174.464 31.4276C174.464 39.9614 171.061 47.7012 165.54 53.3638C164.853 54.0693 164.133 54.7416 163.382 55.3797C162.584 56.059 161.75 56.6989 160.886 57.2968L158.795 55.0226L156.72 52.7651L148.096 43.3857L145.878 40.9733L143.359 38.2334C144.571 38.1783 145.7 37.8054 146.666 37.1979C147.508 36.6674 148.226 35.9575 148.767 35.1216C149.456 34.0563 149.856 32.7879 149.856 31.4259C149.856 27.661 146.804 24.6095 143.04 24.6095H118.623C118.018 26.7778 117.695 29.065 117.695 31.4259C117.695 45.4227 129.042 56.7707 143.04 56.7707C143.853 56.7707 144.657 56.7322 145.451 56.6569L144.994 54.6541L149.124 56.0345H149.125L153.855 57.6154L153.776 57.6942C151.375 58.6763 148.809 59.3389 146.132 59.6287C145.116 59.739 144.086 59.7959 143.041 59.7959C127.372 59.7959 114.67 47.0946 114.67 31.4259C114.67 29.0755 114.956 26.7926 115.494 24.6095C115.759 23.5363 116.084 22.4877 116.468 21.467H143.041C148.541 21.467 153 25.9252 153 31.4259C153 33.7061 152.233 35.8078 150.942 37.4868C150.34 38.2711 149.624 38.9626 148.818 39.5386L150.876 41.776L159.264 50.898L161.314 53.1275C162.067 52.4929 162.787 51.8197 163.47 51.1098C168.388 46.0091 171.411 39.0703 171.411 31.4259C171.411 15.7563 158.709 3.05496 143.04 3.05496C137.253 3.05496 131.872 4.78727 127.385 7.76171C125.177 9.22441 123.186 10.9891 121.471 12.9954L121.372 13.0094L123.41 6.88461L124.346 4.07124L125.434 5.39214C130.457 1.98791 136.516 0 143.04 0C160.395 0 174.465 14.0695 174.465 31.425L174.464 31.4276Z" fill="#4D4CA1"/>
</g>
<path d="M15.5768 35.1942C17.4901 34.6423 18.9986 33.6857 20.0289 32.2875C21.0591 30.8894 21.611 29.1969 21.611 27.1364C21.611 24.4505 20.6912 22.3165 18.8515 20.7711C17.0118 19.2258 14.473 18.4531 11.2352 18.4531H2V20.1456H11.2352C13.9579 20.1456 16.0552 20.7711 17.5269 21.9853C18.9619 23.1995 19.6977 24.9288 19.6977 27.1364C19.6977 29.3808 18.9619 31.1101 17.5269 32.3243C16.0552 33.5385 13.9579 34.1272 11.2352 34.1272H2V44.2087H3.87647V35.7829H11.2352C11.9711 35.7829 12.8173 35.7461 13.7372 35.5989L19.8817 44.2087H22.0157L15.5768 35.1942Z" fill="#292930" stroke="#3D3D3D" stroke-width="4" stroke-miterlimit="2"/>
<path d="M50.2948 30.3007H33.6273V31.9564H50.2948V30.3007ZM50.2948 18.4531H33.6273V20.1456H50.2948V18.4531ZM33.6273 42.5161V44.2087H50.2948V42.5161H33.6273Z" fill="#292930" stroke="#3D3D3D" stroke-width="4" stroke-miterlimit="2"/>
<path d="M64.7481 43.4364C66.4406 44.0986 68.2435 44.393 70.1568 44.393C72.1804 44.393 73.9097 44.0986 75.3079 43.4732C76.706 42.8845 77.7363 42.0382 78.3986 41.008C79.0608 39.9778 79.4288 38.8372 79.4288 37.5862C79.4288 36.0776 79.024 34.8634 78.2146 33.9804C77.4051 33.0974 76.4485 32.3983 75.3447 31.9568C74.2041 31.5152 72.6955 31.0737 70.8191 30.5954C69.1266 30.1907 67.7652 29.7859 66.8086 29.418C65.8151 29.0501 65.0057 28.5349 64.3434 27.8359C63.6811 27.1736 63.35 26.2537 63.35 25.0763C63.35 23.5678 63.9387 22.3168 65.1897 21.3602C66.4038 20.4036 68.2067 19.9252 70.5983 19.9252C71.7757 19.9252 72.9899 20.1092 74.2409 20.4771C75.4919 20.8451 76.6325 21.397 77.6627 22.0961L78.3618 20.5875C77.3315 19.8884 76.1541 19.3365 74.7928 18.895C73.3946 18.4903 71.9965 18.2695 70.5983 18.2695C68.5379 18.2695 66.8454 18.6007 65.484 19.1894C64.1226 19.8149 63.1292 20.6611 62.4669 21.6913C61.8046 22.7216 61.4735 23.8622 61.4735 25.1131C61.4735 26.6585 61.8414 27.9095 62.6509 28.8293C63.4603 29.7491 64.417 30.4114 65.5576 30.8529C66.6982 31.2945 68.2067 31.7728 70.12 32.2143C71.7757 32.619 73.1003 32.987 74.0937 33.3549C75.0503 33.7228 75.8966 34.2748 76.5589 34.937C77.2212 35.6361 77.5523 36.556 77.5523 37.6966C77.5523 39.2051 76.9268 40.4193 75.6758 41.3391C74.4248 42.2958 72.5484 42.7373 70.12 42.7373C68.4275 42.7373 66.8086 42.4429 65.2632 41.8542C63.7179 41.2655 62.5037 40.4561 61.6207 39.4994L60.7744 40.8976C61.731 41.9278 63.0556 42.7741 64.7481 43.4364Z" fill="#292930" stroke="#3D3D3D" stroke-width="4" stroke-miterlimit="2"/>
<path d="M95.4893 20.1456V44.2087H97.3658V20.1456H106.638V18.4531H86.2173V20.1456H95.4893Z" fill="#292930" stroke="#3D3D3D" stroke-width="4" stroke-miterlimit="2"/>
<path d="M198.021 35.1942C199.934 34.6423 201.443 33.6857 202.473 32.2875C203.503 30.8894 204.055 29.1969 204.055 27.1364C204.055 24.4505 203.135 22.3165 201.295 20.7711C199.456 19.2258 196.917 18.4531 193.679 18.4531H184.444V20.1456H193.679C196.402 20.1456 198.499 20.7711 199.971 21.9853C201.406 23.1995 202.142 24.9288 202.142 27.1364C202.142 29.3808 201.406 31.1101 199.971 32.3243C198.499 33.5385 196.402 34.1272 193.679 34.1272H184.444V44.2087H186.32V35.7829H193.679C194.415 35.7829 195.261 35.7461 196.181 35.5989L202.326 44.2087H204.46L198.021 35.1942Z" fill="#292930" stroke="#3D3D3D" stroke-width="4" stroke-miterlimit="2"/>
<path d="M225.491 18.4531H223.614L211.766 44.2087H213.79L224.534 20.5136L235.314 44.2087H237.338L225.491 18.4531Z" fill="#292930" stroke="#3D3D3D" stroke-width="4" stroke-miterlimit="2"/>
<path d="M265.162 31.4416V40.3089C263.211 41.891 260.783 42.6637 257.84 42.6637C255.632 42.6637 253.645 42.1854 251.879 41.192C250.113 40.1985 248.715 38.8372 247.685 37.1079C246.654 35.3786 246.176 33.4653 246.176 31.3313C246.176 29.1972 246.654 27.284 247.685 25.5547C248.678 23.8254 250.076 22.464 251.842 21.4706C253.608 20.5139 255.632 19.9988 257.84 19.9988C259.459 19.9988 260.93 20.2564 262.255 20.7347C263.579 21.213 264.794 21.9857 265.897 23.0527L267.075 21.8017C265.934 20.6611 264.573 19.7781 262.991 19.1894C261.409 18.6007 259.679 18.2695 257.803 18.2695C255.227 18.2695 252.909 18.8582 250.849 19.962C248.788 21.1026 247.206 22.648 246.029 24.6348C244.851 26.6217 244.3 28.8661 244.3 31.3313C244.3 33.8332 244.851 36.0408 246.029 38.0277C247.206 40.0146 248.788 41.5967 250.849 42.7005C252.909 43.8411 255.19 44.393 257.766 44.393C259.532 44.393 261.225 44.1354 262.844 43.5467C264.462 42.9948 265.824 42.1854 266.964 41.0816V31.4416H265.162Z" fill="#292930" stroke="#3D3D3D" stroke-width="4" stroke-miterlimit="2"/>
<path d="M297 30.3007H280.332V31.9564H297V30.3007ZM297 18.4531H280.332V20.1456H297V18.4531ZM280.332 42.5161V44.2087H297V42.5161H280.332Z" fill="#292930" stroke="#3D3D3D" stroke-width="4" stroke-miterlimit="2"/>
<defs>
<filter id="filter0_d_333_1903" x="107.615" y="0" width="70.8501" height="72.2773" filterUnits="userSpaceOnUse" color-interpolation-filters="sRGB">
<feFlood flood-opacity="0" result="BackgroundImageFix"/>
<feColorMatrix in="SourceAlpha" type="matrix" values="0 0 0 0 0 0 0 0 0 0 0 0 0 0 0 0 0 0 127 0" result="hardAlpha"/>
<feOffset dy="4"/>
<feGaussianBlur stdDeviation="2"/>
<feComposite in2="hardAlpha" operator="out"/>
<feColorMatrix type="matrix" values="0 0 0 0 0 0 0 0 0 0 0 0 0 0 0 0 0 0 0.25 0"/>
<feBlend mode="normal" in2="BackgroundImageFix" result="effect1_dropShadow_333_1903"/>
<feBlend mode="normal" in="SourceGraphic" in2="effect1_dropShadow_333_1903" result="shape"/>
</filter>
</defs>
</svg>
