<svg width="156" height="279" viewBox="0 0 156 279" fill="none" xmlns="http://www.w3.org/2000/svg">
<path d="M152.982 51.7862C154.994 61.0567 156 75.8512 156 96.1575V185.56C156 205.873 154.914 220.661 152.735 229.932C150.563 239.202 146.052 247.868 139.208 255.929C132.357 263.983 124.1 269.779 114.423 273.309C104.746 276.84 93.9405 278.611 81.9803 278.611C66.2185 278.611 53.1289 276.759 42.6869 273.062C32.2511 269.371 23.9383 263.6 17.7422 255.762C11.5461 247.923 7.14594 239.677 4.53544 231.012C1.92494 222.346 0.616543 208.576 0.616543 189.708V96.1636C0.616543 71.5493 2.7086 53.1132 6.89898 40.8678C11.077 28.6161 19.3962 18.7901 31.8439 11.396C44.2854 4.00178 59.3682 0.304688 77.0863 0.304688C91.5397 0.304688 104.475 2.87228 115.892 8.0013C127.303 13.1365 135.838 19.4012 141.485 26.7954C147.138 34.1957 150.964 42.5281 152.976 51.7986L152.982 51.7862ZM90.1327 206.422V73.6355C90.1327 59.3964 89.4538 50.4839 88.0961 46.8979C86.7322 43.3119 83.554 41.5158 78.5551 41.5158C73.5563 41.5158 70.4336 43.423 68.8599 47.225C67.28 51.0332 66.4962 59.8408 66.4962 73.6355V204.429C66.4962 219.995 67.2306 229.376 68.6933 232.573C70.1621 235.777 73.3403 237.375 78.2342 237.375C83.1281 237.375 86.3311 235.505 87.8493 231.746C89.3675 227.994 90.1327 219.556 90.1327 206.416" fill="url(#paint0_linear_46_467)"/>
<defs>
<linearGradient id="paint0_linear_46_467" x1="108.795" y1="139.455" x2="-20.6624" y2="139.455" gradientUnits="userSpaceOnUse">
<stop stop-color="#5956E9"/>
<stop offset="1" stop-color="#B3B3B3"/>
</linearGradient>
</defs>
</svg>
