<svg width="160" height="275" viewBox="0 0 160 275" fill="none" xmlns="http://www.w3.org/2000/svg">
<path d="M146.243 0.00620602V43.1164H64.1234V88.8823C74.3922 76.5659 87.6144 70.4109 103.784 70.4109C122.038 70.4109 135.831 75.598 145.169 85.9723C154.513 96.3465 159.186 116.288 159.186 145.81V184.261C159.186 203.34 158.286 217.35 156.48 226.285C154.675 235.22 150.828 243.491 144.927 251.085C139.026 258.692 130.799 264.519 120.257 268.564C109.709 272.609 96.8408 274.638 81.6579 274.638C64.6074 274.638 49.5858 271.611 36.5807 265.567C23.5819 259.518 14.3493 250.502 8.88298 238.515C3.41664 226.533 0.6866 208 0.6866 182.927V168.278H66.9031V185.092C66.9031 202.515 67.505 214.881 68.7087 222.203C69.9124 229.53 74.0633 233.185 81.1677 233.185C84.4438 233.185 87.0932 232.136 89.1221 230.027C91.1387 227.923 92.2369 225.64 92.3982 223.201C92.5658 220.763 92.7519 210.165 92.969 191.409V137.986C92.969 127.891 91.9266 121.01 89.8542 117.349C87.7757 113.689 84.3321 111.852 79.5235 111.852C76.4646 111.852 73.8958 112.801 71.8172 114.681C69.7449 116.568 68.4047 118.597 67.8028 120.756C67.201 122.921 66.9031 127.941 66.9031 135.815H1.33812L4.12403 0H146.236L146.243 0.00620602Z" fill="url(#paint0_linear_104_67)"/>
<defs>
<linearGradient id="paint0_linear_104_67" x1="119.649" y1="137.484" x2="-14.0558" y2="134.183" gradientUnits="userSpaceOnUse">
<stop stop-color="#5956E9"/>
<stop offset="1" stop-color="#B3B3B3"/>
</linearGradient>
</defs>
</svg>
