<svg width="583" height="127" viewBox="0 0 583 127" fill="none" xmlns="http://www.w3.org/2000/svg">
<g filter="url(#filter0_d_69_63)">
<path d="M336.475 58.1034C336.475 72.2371 330.885 85.0664 321.795 94.497C320.531 95.8095 319.2 97.0541 317.807 98.2274L314.016 94.1053L298.509 77.2397L294.704 73.103C296.194 72.0397 297.518 70.7611 298.632 69.3094C301.017 66.2052 302.435 62.3194 302.435 58.1034C302.435 47.9332 294.191 39.6905 284.022 39.6905H234.891C234.182 41.5776 233.58 43.5165 233.092 45.5007C232.096 49.537 231.567 53.7579 231.567 58.1034C231.567 87.0732 255.052 110.557 284.022 110.557C285.953 110.557 287.859 110.453 289.737 110.248C294.687 109.712 299.431 108.487 303.87 106.671L295.468 115.077H295.466L291.701 118.843L291.002 115.787C288.714 116.063 286.383 116.203 284.022 116.203C251.933 116.203 225.922 90.1903 225.922 58.1034C225.922 53.7757 226.396 49.5581 227.294 45.5007C227.73 43.5245 228.267 41.5857 228.9 39.6905C229.538 37.7807 230.271 35.9163 231.094 34.102H284.022C297.279 34.102 308.023 44.8468 308.023 58.1034C308.023 63.9507 305.934 69.3077 302.459 73.4703L318.001 90.3716C325.983 81.9687 330.882 70.6073 330.882 58.1034C330.882 32.2231 309.901 11.2417 284.02 11.2417C274.672 11.2417 265.965 13.9801 258.655 18.6946L261.06 21.6159L253.291 22.7229L244.142 24.0273C247.313 20.3179 250.993 17.0551 255.076 14.3507C263.372 8.85131 273.321 5.64844 284.02 5.64844C312.99 5.64844 336.475 29.1319 336.475 58.1034Z" fill="#A21441"/>
<path d="M342.124 58.1065C342.124 73.8845 335.833 88.1947 325.624 98.6643C324.353 99.9688 323.023 101.212 321.634 102.392C320.158 103.647 318.618 104.831 317.019 105.936L313.154 101.731L309.316 97.5573L293.372 80.2158L289.271 75.7554L284.614 70.6898C286.854 70.5878 288.942 69.8984 290.727 68.7752C292.286 67.7944 293.613 66.4818 294.613 64.9362C295.887 62.9666 296.626 60.6215 296.626 58.1032C296.626 51.1424 290.983 45.5005 284.024 45.5005H238.879C237.761 49.5094 237.164 53.7383 237.164 58.1032C237.164 83.9819 258.143 104.963 284.024 104.963C285.527 104.963 287.015 104.892 288.482 104.753L287.638 101.05L295.273 103.602H295.275L304.019 106.525L303.874 106.671C299.434 108.487 294.691 109.712 289.74 110.247C287.863 110.451 285.958 110.557 284.025 110.557C255.055 110.557 231.57 87.0731 231.57 58.1032C231.57 53.7578 232.1 49.5369 233.095 45.5005C233.584 43.5163 234.186 41.5774 234.895 39.6904H284.025C294.194 39.6904 302.438 47.933 302.438 58.1032C302.438 62.3192 301.02 66.2051 298.635 69.3092C297.521 70.7594 296.198 72.0379 294.707 73.1028L298.512 77.2395L314.02 94.1052L317.81 98.2273C319.203 97.054 320.534 95.8094 321.798 94.4969C330.89 85.0663 336.479 72.237 336.479 58.1032C336.479 29.1317 312.994 5.64832 284.024 5.64832C273.324 5.64832 263.376 8.85119 255.08 14.3506C250.996 17.055 247.316 20.3178 244.146 24.0272L243.963 24.0531L247.73 12.729L249.46 7.52732L251.472 9.96952C260.759 3.67545 271.962 0 284.024 0C316.112 0 342.125 26.013 342.125 58.1016L342.124 58.1065Z" fill="#4D4CA1"/>
</g>
<path d="M30.4625 80.7588C34.1916 79.6831 37.1319 77.8185 39.1399 75.0934C41.1479 72.3682 42.2236 69.0694 42.2236 65.0534C42.2236 59.8183 40.4307 55.6589 36.845 52.6469C33.2593 49.6349 28.311 48.1289 22.0002 48.1289H4V51.4278H22.0002C27.307 51.4278 31.3948 52.6469 34.2633 55.0135C37.0602 57.38 38.4944 60.7506 38.4944 65.0534C38.4944 69.428 37.0602 72.7985 34.2633 75.1651C31.3948 77.5317 27.307 78.6791 22.0002 78.6791H4V98.3287H7.65741V81.9062H22.0002C23.4345 81.9062 25.0839 81.8345 26.8768 81.5476L38.853 98.3287H43.0124L30.4625 80.7588Z" fill="#292930" stroke="#292930" stroke-width="7.98" stroke-miterlimit="2"/>
<path d="M98.1312 71.2208H65.6447V74.4479H98.1312V71.2208ZM98.1312 48.1289H65.6447V51.4278H98.1312V48.1289ZM65.6447 95.0299V98.3287H98.1312V95.0299H65.6447Z" fill="#292930" stroke="#292930" stroke-width="7.98" stroke-miterlimit="2"/>
<path d="M126.301 96.8219C129.6 98.1128 133.114 98.6865 136.843 98.6865C140.788 98.6865 144.158 98.1128 146.883 96.8936C149.608 95.7462 151.616 94.0968 152.907 92.0888C154.198 90.0808 154.915 87.8577 154.915 85.4194C154.915 82.4791 154.126 80.1125 152.549 78.3914C150.971 76.6703 149.106 75.3077 146.955 74.4471C144.732 73.5866 141.792 72.726 138.134 71.7937C134.835 71.0049 132.182 70.216 130.317 69.4989C128.381 68.7817 126.803 67.7777 125.512 66.4152C124.222 65.1243 123.576 63.3315 123.576 61.0366C123.576 58.0963 124.724 55.6581 127.162 53.7935C129.528 51.9289 133.042 50.9967 137.704 50.9967C139.999 50.9967 142.365 51.3552 144.804 52.0724C147.242 52.7895 149.465 53.8652 151.473 55.2278L152.836 52.2875C150.828 50.9249 148.533 49.8492 145.879 48.9887C143.154 48.1998 140.429 47.7695 137.704 47.7695C133.688 47.7695 130.389 48.415 127.736 49.5624C125.082 50.7815 123.146 52.4309 121.855 54.4389C120.564 56.4469 119.919 58.6701 119.919 61.1083C119.919 64.1203 120.636 66.5586 122.214 68.3514C123.791 70.1443 125.656 71.4352 127.879 72.2957C130.102 73.1563 133.042 74.0886 136.772 74.9491C139.999 75.738 142.58 76.4551 144.517 77.1723C146.381 77.8894 148.031 78.9651 149.322 80.256C150.612 81.6185 151.258 83.4114 151.258 85.6345C151.258 88.5748 150.039 90.9414 147.6 92.7342C145.162 94.5988 141.505 95.4593 136.772 95.4593C133.473 95.4593 130.317 94.8856 127.305 93.7382C124.293 92.5908 121.927 91.0131 120.206 89.1485L118.556 91.8736C120.421 93.8816 123.002 95.5311 126.301 96.8219Z" fill="#292930" stroke="#292930" stroke-width="7.98" stroke-miterlimit="2"/>
<path d="M186.218 51.4278V98.3287H189.876V51.4278H207.948V48.1289H168.146V51.4278H186.218Z" fill="#292930" stroke="#292930" stroke-width="7.98" stroke-miterlimit="2"/>
<path d="M386.062 80.7588C389.791 79.6831 392.731 77.8185 394.739 75.0934C396.747 72.3682 397.823 69.0694 397.823 65.0534C397.823 59.8183 396.03 55.6589 392.445 52.6469C388.859 49.6349 383.911 48.1289 377.6 48.1289H359.599V51.4278H377.6C382.907 51.4278 386.994 52.6469 389.863 55.0135C392.66 57.38 394.094 60.7506 394.094 65.0534C394.094 69.428 392.66 72.7985 389.863 75.1651C386.994 77.5317 382.907 78.6791 377.6 78.6791H359.599V98.3287H363.257V81.9062H377.6C379.034 81.9062 380.683 81.8345 382.476 81.5476L394.452 98.3287H398.612L386.062 80.7588Z" fill="#292930" stroke="#292930" stroke-width="7.98" stroke-miterlimit="2"/>
<path d="M439.603 48.1289H435.946L412.854 98.3287H416.798L437.738 52.1449L458.751 98.3287H462.695L439.603 48.1289Z" fill="#292930" stroke="#292930" stroke-width="7.98" stroke-miterlimit="2"/>
<path d="M516.925 73.4431V90.7262C513.124 93.8099 508.391 95.3159 502.654 95.3159C498.351 95.3159 494.479 94.3836 491.036 92.4474C487.594 90.5111 484.869 87.8577 482.861 84.4871C480.853 81.1165 479.921 77.3874 479.921 73.228C479.921 69.0686 480.853 65.3395 482.861 61.9689C484.797 58.5983 487.522 55.9449 490.965 54.0086C494.407 52.1441 498.351 51.1401 502.654 51.1401C505.809 51.1401 508.678 51.6421 511.26 52.5744C513.841 53.5066 516.208 55.0126 518.359 57.0923L520.654 54.6541C518.431 52.4309 515.778 50.7098 512.694 49.5624C509.61 48.415 506.24 47.7695 502.582 47.7695C497.562 47.7695 493.044 48.917 489.028 51.0684C485.012 53.2915 481.929 56.3035 479.634 60.1761C477.339 64.0486 476.263 68.4232 476.263 73.228C476.263 78.1046 477.339 82.4074 479.634 86.2799C481.929 90.1525 485.012 93.2362 489.028 95.3876C493.044 97.6108 497.491 98.6865 502.511 98.6865C505.953 98.6865 509.252 98.1845 512.407 97.037C515.563 95.9613 518.216 94.3836 520.439 92.2322V73.4431H516.925Z" fill="#292930" stroke="#292930" stroke-width="7.98" stroke-miterlimit="2"/>
<path d="M578.981 71.2208H546.495V74.4479H578.981V71.2208ZM578.981 48.1289H546.495V51.4278H578.981V48.1289ZM546.495 95.0299V98.3287H578.981V95.0299H546.495Z" fill="#292930" stroke="#292930" stroke-width="7.98" stroke-miterlimit="2"/>
<defs>
<filter id="filter0_d_69_63" x="221.922" y="0" width="124.203" height="126.844" filterUnits="userSpaceOnUse" color-interpolation-filters="sRGB">
<feFlood flood-opacity="0" result="BackgroundImageFix"/>
<feColorMatrix in="SourceAlpha" type="matrix" values="0 0 0 0 0 0 0 0 0 0 0 0 0 0 0 0 0 0 127 0" result="hardAlpha"/>
<feOffset dy="4"/>
<feGaussianBlur stdDeviation="2"/>
<feComposite in2="hardAlpha" operator="out"/>
<feColorMatrix type="matrix" values="0 0 0 0 0 0 0 0 0 0 0 0 0 0 0 0 0 0 0.25 0"/>
<feBlend mode="normal" in2="BackgroundImageFix" result="effect1_dropShadow_69_63"/>
<feBlend mode="normal" in="SourceGraphic" in2="effect1_dropShadow_69_63" result="shape"/>
</filter>
</defs>
</svg>
