<svg width="174" height="39" viewBox="0 0 174 39" fill="none" xmlns="http://www.w3.org/2000/svg">
<g id="Restorage Logo">
<g id="Logo" filter="url(#filter0_d_333_1564)">
<path id="Vector" d="M98.3571 15.1575C98.3571 18.8442 96.8989 22.1908 94.5276 24.6507C94.1979 24.9931 93.8509 25.3177 93.4874 25.6238L92.4987 24.5485L88.4535 20.1492L87.4609 19.0701C87.8498 18.7927 88.1951 18.4592 88.4855 18.0805C89.1078 17.2708 89.4776 16.2572 89.4776 15.1575C89.4776 12.5046 87.3271 10.3545 84.6746 10.3545H71.8589C71.674 10.8467 71.517 11.3525 71.3895 11.87C71.1299 12.9229 70.9918 14.0239 70.9918 15.1575C70.9918 22.7142 77.1179 28.8399 84.6746 28.8399C85.1783 28.8399 85.6756 28.8129 86.1653 28.7592C87.4567 28.6195 88.6941 28.2999 89.8521 27.8263L87.6602 30.019H87.6598L86.6778 31.0014L86.4955 30.2043C85.8985 30.2761 85.2906 30.3128 84.6746 30.3128C76.3043 30.3128 69.5193 23.5273 69.5193 15.1575C69.5193 14.0286 69.643 12.9284 69.8773 11.87C69.9908 11.3546 70.131 10.8488 70.2961 10.3545C70.4624 9.85631 70.6536 9.36997 70.8685 8.89672H84.6746C88.1326 8.89672 90.9354 11.6995 90.9354 15.1575C90.9354 16.6827 90.3904 18.0801 89.484 19.1659L93.538 23.5746C95.6202 21.3827 96.8981 18.4191 96.8981 15.1575C96.8981 8.40659 91.4251 2.93362 84.6742 2.93362C82.2358 2.93362 79.9645 3.64792 78.0576 4.8777L78.6849 5.63971L76.6585 5.92847L74.272 6.26873C75.0991 5.30113 76.0591 4.45004 77.1242 3.7446C79.2882 2.31008 81.8833 1.47461 84.6742 1.47461C92.231 1.47461 98.3571 7.60025 98.3571 15.1575Z" fill="#FAB8C4"/>
<path id="Vector_2" d="M99.8304 15.1571C99.8304 19.2728 98.1894 23.0056 95.5264 25.7365C95.195 26.0768 94.848 26.401 94.4858 26.7088C94.1007 27.0364 93.6988 27.345 93.2817 27.6333L92.2736 26.5366L91.2727 25.4478L87.1135 20.9243L86.0437 19.7608L84.8291 18.4394C85.4134 18.4128 85.958 18.233 86.4237 17.94C86.8302 17.6841 87.1764 17.3418 87.4373 16.9386C87.7695 16.4248 87.9624 15.8131 87.9624 15.1562C87.9624 13.3405 86.4904 11.8688 84.675 11.8688H72.8991C72.6074 12.9145 72.4516 14.0176 72.4516 15.1562C72.4516 21.9067 77.9242 27.3796 84.675 27.3796C85.0672 27.3796 85.4552 27.361 85.8381 27.3247L85.6177 26.3588L87.6095 27.0246H87.6099L89.8909 27.787L89.8529 27.825C88.6949 28.2987 87.4575 28.6183 86.1661 28.758C85.6764 28.8112 85.1795 28.8386 84.6755 28.8386C77.1187 28.8386 70.9926 22.713 70.9926 15.1562C70.9926 14.0227 71.1307 12.9217 71.3903 11.8688C71.5178 11.3512 71.6748 10.8455 71.8597 10.3532H84.6755C87.3279 10.3532 89.4784 12.5033 89.4784 15.1562C89.4784 16.2559 89.1086 17.2696 88.4864 18.0793C88.1959 18.4575 87.8506 18.7911 87.4618 19.0688L88.4543 20.1479L92.4995 24.5473L93.4882 25.6226C93.8517 25.3165 94.1987 24.9918 94.5284 24.6495C96.9001 22.1895 98.3579 18.843 98.3579 15.1562C98.3579 7.599 92.2318 1.47336 84.675 1.47336C81.8841 1.47336 79.289 2.30883 77.125 3.74335C76.0599 4.44879 75.0999 5.29988 74.2728 6.26749L74.2251 6.27424L75.2079 3.32034L75.6592 1.9635L76.184 2.60055C78.6064 0.958739 81.5286 0 84.675 0C93.0453 0 99.8308 6.78548 99.8308 15.1558L99.8304 15.1571Z" fill="#FAB8C4"/>
</g>
<g id="logo-group">
<g id="logo-center">
<g id="title">
<path id="path192236" d="M9.80316 17.2292C10.9028 16.912 11.7698 16.3622 12.3619 15.5586C12.954 14.755 13.2712 13.7823 13.2712 12.5981C13.2712 11.0543 12.7426 9.82783 11.6852 8.93967C10.6279 8.05151 9.16875 7.60742 7.30784 7.60742H2V8.58017H7.30784C8.8727 8.58017 10.0781 8.93967 10.9239 9.63751C11.7487 10.3354 12.1716 11.3293 12.1716 12.5981C12.1716 13.888 11.7487 14.8819 10.9239 15.5798C10.0781 16.2776 8.8727 16.6159 7.30784 16.6159H2V22.4102H3.07848V17.5676H7.30784C7.73077 17.5676 8.21715 17.5464 8.74582 17.4618L12.2773 22.4102H13.5038L9.80316 17.2292Z" fill="#292930" stroke="white" stroke-width="3" stroke-miterlimit="2"/>
<path id="path192238" d="M29.7571 14.4167H20.1776V15.3683H29.7571V14.4167ZM29.7571 7.60742H20.1776V8.58017H29.7571V7.60742ZM20.1776 21.4374V22.4102H29.7571V21.4374H20.1776Z" fill="#292930" stroke="white" stroke-width="3" stroke-miterlimit="2"/>
<path id="path192240" d="M38.0637 21.9663C39.0364 22.347 40.0726 22.5162 41.1723 22.5162C42.3353 22.5162 43.3292 22.347 44.1328 21.9875C44.9364 21.6491 45.5285 21.1628 45.9092 20.5707C46.2898 19.9785 46.5013 19.323 46.5013 18.604C46.5013 17.737 46.2686 17.0391 45.8034 16.5316C45.3382 16.0241 44.7884 15.6223 44.154 15.3686C43.4984 15.1148 42.6314 14.861 41.5529 14.5861C40.5802 14.3535 39.7977 14.1209 39.2479 13.9094C38.677 13.698 38.2117 13.4019 37.8311 13.0001C37.4504 12.6195 37.2601 12.0908 37.2601 11.4141C37.2601 10.5471 37.5985 9.8281 38.3175 9.27828C39.0153 8.72846 40.0515 8.45356 41.426 8.45356C42.1027 8.45356 42.8006 8.55929 43.5196 8.77076C44.2386 8.98223 44.8941 9.29943 45.4862 9.70122L45.888 8.8342C45.2959 8.43241 44.6192 8.11521 43.8368 7.86145C43.0332 7.62883 42.2296 7.50195 41.426 7.50195C40.2418 7.50195 39.2691 7.69227 38.4866 8.03062C37.7042 8.39012 37.1332 8.87649 36.7526 9.4686C36.372 10.0607 36.1816 10.7163 36.1816 11.4353C36.1816 12.3234 36.3931 13.0424 36.8583 13.5711C37.3236 14.0997 37.8734 14.4804 38.5289 14.7341C39.1845 14.9879 40.0515 15.2628 41.1511 15.5166C42.1027 15.7492 42.864 15.9607 43.435 16.1721C43.9848 16.3836 44.4712 16.7008 44.8518 17.0814C45.2325 17.4832 45.4228 18.0119 45.4228 18.6674C45.4228 19.5345 45.0633 20.2323 44.3443 20.761C43.6253 21.3108 42.5468 21.5646 41.1511 21.5646C40.1784 21.5646 39.2479 21.3954 38.3598 21.057C37.4716 20.7187 36.7737 20.2535 36.2662 19.7036L35.7798 20.5072C36.3297 21.0993 37.0909 21.5857 38.0637 21.9663Z" fill="#292930" stroke="white" stroke-width="3" stroke-miterlimit="2"/>
<path id="path192242" d="M55.7319 8.58017V22.4102H56.8104V8.58017H62.1394V7.60742H50.4029V8.58017H55.7319Z" fill="#292930" stroke="white" stroke-width="3" stroke-miterlimit="2"/>
<path id="path192246" d="M114.661 17.2292C115.761 16.912 116.628 16.3622 117.22 15.5586C117.812 14.755 118.129 13.7823 118.129 12.5981C118.129 11.0543 117.6 9.82783 116.543 8.93967C115.486 8.05151 114.027 7.60742 112.166 7.60742H106.858V8.58017H112.166C113.731 8.58017 114.936 8.93967 115.782 9.63751C116.607 10.3354 117.03 11.3293 117.03 12.5981C117.03 13.888 116.607 14.8819 115.782 15.5798C114.936 16.2776 113.731 16.6159 112.166 16.6159H106.858V22.4102H107.936V17.5676H112.166C112.589 17.5676 113.075 17.5464 113.604 17.4618L117.135 22.4102H118.362L114.661 17.2292Z" fill="#292930" stroke="white" stroke-width="3" stroke-miterlimit="2"/>
<path id="path192248" d="M130.449 7.60742H129.371L122.561 22.4102H123.724L129.899 8.79164L136.095 22.4102H137.258L130.449 7.60742Z" fill="#292930" stroke="white" stroke-width="3" stroke-miterlimit="2"/>
<path id="path192250" d="M153.25 15.0725V20.1689C152.129 21.0782 150.733 21.5223 149.041 21.5223C147.773 21.5223 146.631 21.2474 145.616 20.6764C144.601 20.1054 143.797 19.323 143.205 18.3291C142.613 17.3352 142.338 16.2356 142.338 15.0091C142.338 13.7825 142.613 12.6829 143.205 11.689C143.776 10.6951 144.579 9.91268 145.594 9.34172C146.609 8.79191 147.773 8.49585 149.041 8.49585C149.972 8.49585 150.818 8.64388 151.579 8.91879C152.34 9.19369 153.038 9.63778 153.672 10.251L154.349 9.53204C153.694 8.87649 152.911 8.36897 152.002 8.03062C151.093 7.69227 150.099 7.50195 149.02 7.50195C147.54 7.50195 146.208 7.8403 145.023 8.4747C143.839 9.13025 142.93 10.0184 142.253 11.1603C141.577 12.3023 141.259 13.5922 141.259 15.0091C141.259 16.447 141.577 17.7158 142.253 18.8578C142.93 19.9997 143.839 20.909 145.023 21.5434C146.208 22.199 147.519 22.5162 148.999 22.5162C150.014 22.5162 150.987 22.3681 151.917 22.0298C152.848 21.7126 153.63 21.2474 154.286 20.613V15.0725H153.25Z" fill="#292930" stroke="white" stroke-width="3" stroke-miterlimit="2"/>
<path id="path192252" d="M171.548 14.4167H161.969V15.3683H171.548V14.4167ZM171.548 7.60742H161.969V8.58017H171.548V7.60742ZM161.969 21.4374V22.4102H171.548V21.4374H161.969Z" fill="#292930" stroke="white" stroke-width="3" stroke-miterlimit="2"/>
</g>
</g>
</g>
</g>
<defs>
<filter id="filter0_d_333_1564" x="65.5193" y="0" width="38.3115" height="39.002" filterUnits="userSpaceOnUse" color-interpolation-filters="sRGB">
<feFlood flood-opacity="0" result="BackgroundImageFix"/>
<feColorMatrix in="SourceAlpha" type="matrix" values="0 0 0 0 0 0 0 0 0 0 0 0 0 0 0 0 0 0 127 0" result="hardAlpha"/>
<feOffset dy="4"/>
<feGaussianBlur stdDeviation="2"/>
<feComposite in2="hardAlpha" operator="out"/>
<feColorMatrix type="matrix" values="0 0 0 0 0 0 0 0 0 0 0 0 0 0 0 0 0 0 0.25 0"/>
<feBlend mode="normal" in2="BackgroundImageFix" result="effect1_dropShadow_333_1564"/>
<feBlend mode="normal" in="SourceGraphic" in2="effect1_dropShadow_333_1564" result="shape"/>
</filter>
</defs>
</svg>
