<svg width="48" height="48" viewBox="0 0 48 48" fill="none" xmlns="http://www.w3.org/2000/svg">
<g id="Star icon">
<circle id="bg" cx="24" cy="24" r="24" fill="#FFDC60"/>
<path id="Star" fill-rule="evenodd" clip-rule="evenodd" d="M23.9999 29.7381L20.0922 31.885C19.6245 32.1419 19.046 31.954 18.8002 31.4652C18.7022 31.2706 18.6685 31.0477 18.704 30.831L19.4503 26.2838L16.2889 23.0635C15.9105 22.6781 15.9028 22.0451 16.2716 21.6497C16.4185 21.4922 16.6109 21.3897 16.8192 21.3581L21.1881 20.6947L23.142 16.5576C23.3758 16.0624 23.9495 15.8591 24.4234 16.1035C24.612 16.2008 24.7648 16.3604 24.8579 16.5576L26.8117 20.6947L31.1807 21.3581C31.7036 21.4375 32.0659 21.9449 31.9899 22.4913C31.9597 22.7089 31.8616 22.91 31.7109 23.0635L28.5495 26.2838L29.2958 30.831C29.3852 31.3752 29.0354 31.8921 28.5146 31.9854C28.3072 32.0226 28.0939 31.9873 27.9077 31.885L23.9999 29.7381Z" fill="#5956E9"/>
</g>
</svg>
